<?xml version="1.0" encoding="UTF-8"?>
<!-- Arya Vidya Play School - roadside banner. Pure vector, all text already
     converted to outlines: no fonts needed to open or print this file.
     Artboard 2400x1200 = 8ft x 4ft at 25 units/inch; prints at any 2:1 size. -->
<svg xmlns="http://www.w3.org/2000/svg" viewBox="0 0 2400 1200"
     width="96in" height="48in"
     role="img" aria-label="Arya Vidya Play School - Admissions Open">
  <title>Arya Vidya Play School — Admissions Open</title>
  <defs>
    <linearGradient id="cTreeTop" x1="0%" y1="0%" x2="0%" y2="100%">
      <stop offset="0%" stop-color="#6BCB77"/><stop offset="100%" stop-color="#4DAA57"/>
    </linearGradient>
    <linearGradient id="cTrunk" x1="0%" y1="0%" x2="100%" y2="0%">
      <stop offset="0%" stop-color="#8B5A2B"/><stop offset="100%" stop-color="#A0522D"/>
    </linearGradient>
    <linearGradient id="cPanel" x1="0%" y1="0%" x2="100%" y2="100%">
      <stop offset="0%" stop-color="#6BCB77"/>
      <stop offset="100%" stop-color="#4DAA57"/>
    </linearGradient></defs>
  <rect width="2400" height="1200" fill="#FFFFFF"/>
<rect width="2400" height="1200" fill="#FFFFFF"/>
<rect width="840" height="1200" fill="url(#cPanel)"/>
<rect x="840" y="0" width="14" height="1200" fill="#FFD93D"/>
<circle cx="80" cy="1150" r="300" fill="#FFFFFF" opacity="0.13"/>
<circle cx="800" cy="60" r="250" fill="#FFFFFF" opacity="0.11"/>
<g transform="translate(189.00,172.00) scale(2.51087) translate(-58,-30)">
    <path d="M140 180 L145 130 L155 130 L160 180 Z" fill="url(#cTrunk)"/>
    <circle cx="150" cy="85" r="45" fill="url(#cTreeTop)"/>
    <circle cx="115" cy="105" r="32" fill="#5DBB6A"/>
    <circle cx="185" cy="105" r="32" fill="#5DBB6A"/>
    <circle cx="130" cy="75" r="28" fill="#7ED687"/>
    <circle cx="170" cy="75" r="28" fill="#7ED687"/>
    <circle cx="150" cy="55" r="22" fill="#8FE09A"/>
    <circle cx="125" cy="70" r="8" fill="#FF6B6B"/>
    <circle cx="175" cy="70" r="8" fill="#FFD93D"/>
    <circle cx="150" cy="50" r="8" fill="#4D96FF"/>
    <circle cx="110" cy="100" r="7" fill="#9B59B6"/>
    <circle cx="190" cy="100" r="7" fill="#FF9F1C"/>
    <circle cx="140" cy="90" r="6" fill="#FF6B9D"/>
    <circle cx="160" cy="90" r="6" fill="#00D9FF"/>
    <circle cx="80" cy="175" r="12" fill="#FFEAA7"/>
    <circle cx="76" cy="173" r="2" fill="#2D3436"/>
    <circle cx="84" cy="173" r="2" fill="#2D3436"/>
    <path d="M76 179 Q80 183 84 179" stroke="#2D3436" stroke-width="1.5" fill="none"/>
    <ellipse cx="80" cy="205" rx="12" ry="18" fill="#FF6B6B"/>
    <line x1="68" y1="200" x2="60" y2="190" stroke="#FFEAA7" stroke-width="4" stroke-linecap="round"/>
    <line x1="92" y1="200" x2="100" y2="190" stroke="#FFEAA7" stroke-width="4" stroke-linecap="round"/>
    <circle cx="220" cy="175" r="12" fill="#DFB48C"/>
    <circle cx="216" cy="173" r="2" fill="#2D3436"/>
    <circle cx="224" cy="173" r="2" fill="#2D3436"/>
    <path d="M216 179 Q220 183 224 179" stroke="#2D3436" stroke-width="1.5" fill="none"/>
    <ellipse cx="220" cy="205" rx="12" ry="18" fill="#4D96FF"/>
    <line x1="208" y1="200" x2="200" y2="190" stroke="#DFB48C" stroke-width="4" stroke-linecap="round"/>
    <line x1="232" y1="200" x2="240" y2="190" stroke="#DFB48C" stroke-width="4" stroke-linecap="round"/>
    <ellipse cx="150" cy="225" rx="100" ry="12" fill="#90EE90" opacity="0.5"/></g>
<path d="M149.68 791.54Q147.51 791.39 136.35 791.39Q125.19 791.39 123.33 792.01Q115.11 818.98 114.03 830.91Q114.03 831.07 110.23 831.07Q106.43 831.07 102.40 830.60Q93.88 829.36 93.88 828.43Q93.88 822.23 104.88 792.32Q102.87 790.61 100.23 785.26Q97.60 779.92 97.60 776.35Q97.60 776.20 110.46 775.73Q123.17 738.84 124.88 736.82Q125.50 736.36 130.46 735.35Q135.42 734.34 136.81 734.34L136.50 732.33Q136.19 730.16 135.80 727.60Q135.42 725.04 135.42 724.27Q135.42 723.80 138.05 722.41Q145.65 718.69 153.71 718.69Q155.26 727.83 157.81 742.02Q160.37 756.20 167.81 785.34Q175.25 814.48 182.07 825.95L183.16 827.81Q183.16 828.59 180.21 830.45Q177.27 832.31 172.46 834.01Q167.66 835.72 163.63 835.72Q162.23 835.72 156.88 818.12Q151.54 800.53 149.68 791.54ZM145.96 775.58Q140.69 753.25 140.22 750.62Q139.76 747.98 139.45 747.98Q139.14 747.98 138.67 748.60Q137.28 751.24 133.48 761.31Q129.68 771.39 128.60 775.27Q145.80 775.27 145.96 775.58Z M193.54 805.34 193.23 770.15Q193.23 761.00 193.85 760.38Q195.56 758.68 199.74 757.36Q203.93 756.04 207.57 756.04Q211.21 756.04 211.21 756.82Q210.75 761.00 210.75 766.35Q210.75 771.70 211.06 771.70Q211.37 771.70 211.68 771.31Q211.99 770.93 212.68 770.07Q213.38 769.22 215.63 767.05Q217.88 764.88 220.51 763.33Q227.18 758.99 234.77 758.99Q236.01 761.00 236.01 765.19Q236.01 774.03 233.84 777.75L233.22 778.99L231.21 778.68Q220.05 778.68 213.69 787.82Q211.21 791.54 211.21 793.40V807.04Q211.21 825.64 210.75 826.11Q206.41 830.29 193.70 830.29Q192.46 830.29 192.46 829.83Q193.54 823.78 193.54 805.34Z M299.41 783.02 299.56 824.25Q299.56 836.34 296.39 845.79Q293.21 855.25 288.64 860.36Q284.06 865.48 278.17 868.73Q268.56 874.16 258.64 874.16Q258.18 874.16 256.78 871.83Q255.39 869.51 254.15 865.55Q252.91 861.60 252.91 858.19Q258.80 858.19 264.69 855.94Q270.58 853.70 272.90 851.14Q275.23 848.58 277.55 844.71Q282.36 837.11 282.36 820.06L282.20 815.57Q282.20 814.64 281.89 814.64Q281.58 814.64 281.27 815.10Q280.96 815.57 280.50 816.26Q280.03 816.96 278.25 818.74Q276.47 820.53 274.45 821.92Q269.03 825.64 263.53 825.64Q258.02 825.64 254.84 824.25Q251.67 822.85 249.57 820.68Q247.48 818.51 246.09 814.56Q244.69 810.61 243.92 807.20Q243.14 803.79 242.83 797.90Q242.21 789.68 242.21 780.85Q242.21 768.60 243.45 760.85L243.92 758.68Q243.92 757.59 248.64 756.51Q253.37 755.42 256.47 755.42L261.43 756.20Q259.73 771.55 259.73 782.09Q259.73 792.63 261.90 799.60Q264.07 806.58 269.18 806.58Q274.30 806.58 277.32 803.55Q280.34 800.53 281.12 797.59L281.89 794.64Q281.58 784.88 281.58 773.64Q281.58 762.40 282.36 761.62Q284.37 759.61 289.41 758.52Q294.45 757.44 297.55 757.44Q300.65 757.44 300.65 757.90Q299.41 765.19 299.41 783.02Z M369.93 791.70Q369.93 811.07 370.40 814.33Q371.64 822.85 375.67 826.57Q375.67 828.28 369.55 831.69Q363.42 835.10 358.46 835.10Q357.07 835.10 355.52 830.99Q353.97 826.88 353.74 824.87Q353.50 822.85 353.35 822.85L352.88 823.16Q344.67 829.67 333.66 829.67Q322.66 829.67 316.69 824.32Q310.72 818.98 310.72 810.30Q310.72 801.62 314.52 795.65Q318.32 789.68 323.43 786.58Q328.55 783.48 334.75 781.62Q344.20 778.52 349.63 778.52L349.94 778.37Q349.94 770.77 330.72 770.77Q323.12 770.77 319.40 771.39H319.25Q319.25 768.29 321.19 763.64Q323.12 758.99 324.44 757.59Q325.76 756.20 335.52 756.20Q353.19 756.20 361.56 762.94Q369.93 769.69 369.93 783.79ZM352.73 801.62V795.73Q352.73 792.32 352.57 792.32Q342.19 792.32 334.59 797.74Q329.79 801.15 329.79 806.27Q329.79 809.52 332.11 811.69Q334.44 813.86 339.17 813.86Q343.89 813.86 348.31 811.07Q352.73 808.28 352.73 801.62Z M445.42 833.70Q443.87 833.70 443.56 833.39Q438.45 828.74 424.50 786.74Q410.54 744.73 410.54 729.07Q410.54 728.76 412.71 727.83Q419.22 724.89 424.57 724.89Q429.92 724.89 429.92 725.35Q430.54 732.95 439.14 765.50Q447.75 798.05 453.95 810.61Q455.34 813.40 456.74 812.00Q457.20 811.54 457.36 810.92Q461.54 803.01 469.37 778.75Q477.20 754.49 477.20 738.84Q477.20 736.98 473.71 734.81Q470.22 732.64 467.43 732.33Q467.28 732.02 467.28 730.62Q467.28 729.23 468.05 726.21Q468.83 723.18 469.45 722.72Q483.71 718.84 497.97 718.84Q500.29 719.15 500.29 719.46Q500.29 732.79 493.08 759.38Q485.88 785.96 478.28 806.81Q470.69 827.66 468.36 829.98Q461.54 833.70 445.42 833.70Z M517.73 733.72Q521.99 733.72 524.63 736.51Q527.26 739.30 527.26 743.80Q527.26 748.29 523.77 751.47Q520.29 754.65 516.02 754.65Q511.76 754.65 509.20 751.94Q506.65 749.22 506.65 744.73Q506.65 740.23 510.06 736.98Q513.47 733.72 517.73 733.72ZM525.56 772.32 525.25 797.43Q525.25 809.52 525.94 815.18Q526.64 820.84 529.90 825.80Q529.90 827.35 523.54 830.76Q517.19 834.17 512.69 834.17Q511.30 834.17 509.90 829.52Q508.51 824.87 508.12 820.68Q507.73 816.50 507.73 792.47Q507.73 768.44 508.82 766.27Q512.38 763.48 521.37 763.48Q524.94 763.48 525.71 764.41Z M579.50 759.76 579.19 736.82Q579.19 727.21 579.65 726.75Q581.51 724.89 585.78 723.11Q590.04 721.32 593.91 721.32Q597.79 721.32 597.79 721.94Q596.55 747.67 596.55 776.66Q596.55 805.65 597.48 811.23Q598.56 819.60 602.59 823.63Q602.59 825.18 596.16 828.51Q589.73 831.84 585.23 831.84Q584.77 831.84 583.84 830.60Q580.89 826.73 580.27 820.06Q580.27 819.60 579.96 819.60L579.50 819.91Q572.99 829.21 560.12 829.21Q549.74 829.21 543.69 820.99Q537.65 812.78 537.65 802.55Q537.65 785.03 548.50 772.71Q559.35 760.38 579.50 759.76ZM579.81 776.04Q579.81 775.73 578.10 775.73H577.48Q567.56 775.73 561.90 782.09Q556.25 788.44 556.25 798.21Q556.25 803.94 558.96 807.58Q561.67 811.23 567.17 811.23Q572.68 811.23 576.01 806.42Q579.34 801.62 579.34 798.83Q579.34 781.62 579.81 776.04Z M671.41 783.02 671.57 824.25Q671.57 836.34 668.39 845.79Q665.21 855.25 660.64 860.36Q656.07 865.48 650.18 868.73Q640.57 874.16 630.65 874.16Q630.18 874.16 628.79 871.83Q627.39 869.51 626.15 865.55Q624.91 861.60 624.91 858.19Q630.80 858.19 636.69 855.94Q642.58 853.70 644.91 851.14Q647.23 848.58 649.56 844.71Q654.36 837.11 654.36 820.06L654.21 815.57Q654.21 814.64 653.90 814.64Q653.59 814.64 653.28 815.10Q652.97 815.57 652.50 816.26Q652.04 816.96 650.26 818.74Q648.47 820.53 646.46 821.92Q641.03 825.64 635.53 825.64Q630.03 825.64 626.85 824.25Q623.67 822.85 621.58 820.68Q619.49 818.51 618.09 814.56Q616.70 810.61 615.92 807.20Q615.15 803.79 614.84 797.90Q614.22 789.68 614.22 780.85Q614.22 768.60 615.46 760.85L615.92 758.68Q615.92 757.59 620.65 756.51Q625.38 755.42 628.48 755.42L633.44 756.20Q631.73 771.55 631.73 782.09Q631.73 792.63 633.90 799.60Q636.07 806.58 641.19 806.58Q646.30 806.58 649.33 803.55Q652.35 800.53 653.12 797.59L653.90 794.64Q653.59 784.88 653.59 773.64Q653.59 762.40 654.36 761.62Q656.38 759.61 661.42 758.52Q666.45 757.44 669.55 757.44Q672.65 757.44 672.65 757.90Q671.41 765.19 671.41 783.02Z M741.94 791.70Q741.94 811.07 742.40 814.33Q743.64 822.85 747.67 826.57Q747.67 828.28 741.55 831.69Q735.43 835.10 730.47 835.10Q729.07 835.10 727.52 830.99Q725.97 826.88 725.74 824.87Q725.51 822.85 725.35 822.85L724.89 823.16Q716.67 829.67 705.67 829.67Q694.66 829.67 688.70 824.32Q682.73 818.98 682.73 810.30Q682.73 801.62 686.53 795.65Q690.32 789.68 695.44 786.58Q700.55 783.48 706.75 781.62Q716.21 778.52 721.63 778.52L721.94 778.37Q721.94 770.77 702.72 770.77Q695.13 770.77 691.41 771.39H691.25Q691.25 768.29 693.19 763.64Q695.13 758.99 696.45 757.59Q697.76 756.20 707.53 756.20Q725.20 756.20 733.57 762.94Q741.94 769.69 741.94 783.79ZM724.73 801.62V795.73Q724.73 792.32 724.58 792.32Q714.19 792.32 706.60 797.74Q701.79 801.15 701.79 806.27Q701.79 809.52 704.12 811.69Q706.44 813.86 711.17 813.86Q715.90 813.86 720.32 811.07Q724.73 808.28 724.73 801.62Z" fill="#FFFFFF"/>
<path d="M115.37 897.40H106.27V918.26H95.37V863.94H115.37Q121.68 863.94 126.11 866.11Q130.55 868.29 132.77 872.11Q134.99 875.92 134.99 880.75Q134.99 885.11 132.92 888.92Q130.86 892.73 126.46 895.07Q122.07 897.40 115.37 897.40ZM123.78 880.75Q123.78 872.81 114.91 872.81H106.27V888.61H114.91Q119.42 888.61 121.60 886.55Q123.78 884.48 123.78 880.75Z M166.82 909.62H184.72V918.26H155.92V863.94H166.82Z M238.19 907.91H216.55L212.97 918.26H201.53L221.07 863.86H233.75L253.29 918.26H241.77ZM235.23 899.19 227.37 876.47 219.51 899.19Z M317.03 863.94 298.66 899.35V918.26H287.77V899.35L269.32 863.94H281.62L293.29 888.76L304.89 863.94Z M366.92 902.62H378.59Q378.83 905.96 380.97 907.91Q383.11 909.86 386.84 909.86Q390.66 909.86 392.84 908.03Q395.02 906.20 395.02 903.24Q395.02 900.83 393.54 899.27Q392.06 897.71 389.84 896.82Q387.62 895.92 383.73 894.83Q378.44 893.28 375.13 891.76Q371.82 890.24 369.45 887.17Q367.08 884.09 367.08 878.96Q367.08 874.13 369.49 870.55Q371.90 866.97 376.26 865.06Q380.62 863.16 386.22 863.16Q394.63 863.16 399.88 867.24Q405.13 871.33 405.68 878.65H393.69Q393.54 875.84 391.32 874.01Q389.10 872.19 385.44 872.19Q382.25 872.19 380.35 873.82Q378.44 875.45 378.44 878.57Q378.44 880.75 379.88 882.19Q381.32 883.63 383.46 884.52Q385.60 885.42 389.49 886.58Q394.78 888.14 398.13 889.70Q401.48 891.25 403.89 894.37Q406.30 897.48 406.30 902.54Q406.30 906.90 404.04 910.63Q401.79 914.37 397.43 916.59Q393.07 918.81 387.08 918.81Q381.40 918.81 376.84 916.86Q372.29 914.91 369.64 911.26Q367.00 907.60 366.92 902.62Z M453.86 863.23Q462.96 863.23 469.81 867.90Q476.66 872.57 479.38 880.82H466.85Q464.99 876.93 461.60 874.99Q458.21 873.04 453.78 873.04Q449.03 873.04 445.33 875.26Q441.64 877.48 439.57 881.53Q437.51 885.57 437.51 891.02Q437.51 896.39 439.57 900.48Q441.64 904.56 445.33 906.78Q449.03 909.00 453.78 909.00Q458.21 909.00 461.60 907.01Q464.99 905.03 466.85 901.14H479.38Q476.66 909.47 469.85 914.10Q463.04 918.73 453.86 918.73Q446.07 918.73 439.81 915.19Q433.54 911.65 429.92 905.34Q426.30 899.04 426.30 891.02Q426.30 883.00 429.92 876.66Q433.54 870.32 439.81 866.78Q446.07 863.23 453.86 863.23Z M547.02 863.94V918.26H536.12V895.15H512.85V918.26H501.96V863.94H512.85V886.27H536.12V863.94Z M568.34 890.94Q568.34 883.00 572.08 876.66Q575.82 870.32 582.20 866.74Q588.58 863.16 596.21 863.16Q603.91 863.16 610.26 866.74Q616.60 870.32 620.30 876.66Q623.99 883.00 623.99 890.94Q623.99 898.96 620.30 905.30Q616.60 911.65 610.22 915.23Q603.83 918.81 596.21 918.81Q588.58 918.81 582.20 915.23Q575.82 911.65 572.08 905.30Q568.34 898.96 568.34 890.94ZM612.79 890.94Q612.79 885.49 610.68 881.41Q608.58 877.32 604.85 875.14Q601.11 872.96 596.21 872.96Q591.30 872.96 587.53 875.14Q583.75 877.32 581.65 881.41Q579.55 885.49 579.55 890.94Q579.55 896.39 581.65 900.52Q583.75 904.64 587.53 906.86Q591.30 909.08 596.21 909.08Q601.11 909.08 604.85 906.86Q608.58 904.64 610.68 900.52Q612.79 896.39 612.79 890.94Z M642.67 890.94Q642.67 883.00 646.41 876.66Q650.14 870.32 656.53 866.74Q662.91 863.16 670.54 863.16Q678.24 863.16 684.58 866.74Q690.93 870.32 694.62 876.66Q698.32 883.00 698.32 890.94Q698.32 898.96 694.62 905.30Q690.93 911.65 684.54 915.23Q678.16 918.81 670.54 918.81Q662.91 918.81 656.53 915.23Q650.14 911.65 646.41 905.30Q642.67 898.96 642.67 890.94ZM687.11 890.94Q687.11 885.49 685.01 881.41Q682.91 877.32 679.17 875.14Q675.44 872.96 670.54 872.96Q665.63 872.96 661.86 875.14Q658.08 877.32 655.98 881.41Q653.88 885.49 653.88 890.94Q653.88 896.39 655.98 900.52Q658.08 904.64 661.86 906.86Q665.63 909.08 670.54 909.08Q675.44 909.08 679.17 906.86Q682.91 904.64 685.01 900.52Q687.11 896.39 687.11 890.94Z M730.54 909.62H748.44V918.26H719.65V863.94H730.54Z" fill="#E4F5E8"/>
<path d="M142.21 991.99Q142.21 998.67 139.64 1010.24Q137.08 1021.80 134.38 1030.37Q131.68 1038.94 130.87 1039.71Q130.07 1040.49 127.13 1041.09Q124.20 1041.70 122.65 1041.70Q121.09 1041.70 121.09 1041.50Q120.96 1040.96 119.81 1034.62Q116.44 1016.88 115.97 1015.77Q115.50 1014.65 115.36 1014.65L115.02 1015.06Q113.34 1019.24 111.21 1028.11Q109.09 1036.98 109.09 1038.26Q109.09 1038.53 107.81 1039.00Q104.30 1040.28 100.93 1040.28Q100.18 1040.28 99.98 1040.08Q98.16 1038.26 94.42 1020.22Q90.67 1002.18 90.67 994.82Q90.67 994.69 91.35 994.28Q93.64 993.14 96.37 993.17Q99.11 993.20 99.11 993.34Q99.58 1002.11 101.10 1011.79Q102.61 1021.47 104.03 1025.04Q104.16 1025.51 104.33 1025.51Q104.50 1025.51 104.70 1025.04Q110.24 1003.66 111.45 1002.38Q113.88 1001.43 118.26 1001.43Q120.69 1001.57 120.89 1001.77Q121.09 1001.97 122.24 1007.40Q123.39 1012.83 124.74 1019.41Q126.09 1025.98 126.39 1027.30Q126.69 1028.62 127.23 1027.20Q128.38 1024.03 130.13 1015.67Q131.89 1007.30 131.89 999.88Q131.89 999.14 130.64 998.43Q129.39 997.72 128.11 997.59Q128.04 997.39 128.04 996.75Q128.04 996.10 128.35 994.86Q128.65 993.61 128.85 993.41Q134.99 991.79 141.13 991.79Q142.21 991.92 142.21 991.99Z M146.12 1025.18 145.92 1001.77Q145.92 995.23 146.25 994.89Q147.06 994.08 148.88 993.34Q150.71 992.60 152.39 992.60Q154.08 992.60 154.08 992.87Q154.01 993.47 153.81 1001.70Q153.61 1009.93 153.61 1012.49V1013.10Q153.61 1013.44 153.81 1013.44L155.16 1012.09Q155.90 1011.42 158.16 1010.24Q160.42 1009.05 162.41 1009.05Q164.40 1009.05 165.71 1009.73Q167.03 1010.40 167.90 1011.35Q168.78 1012.29 169.39 1014.08Q170.00 1015.87 170.30 1017.39Q170.60 1018.90 170.81 1021.53Q171.01 1025.11 171.01 1030.57L170.74 1039.54Q170.54 1040.08 168.44 1040.49Q166.35 1040.89 165.00 1040.89L162.78 1040.55Q163.45 1034.48 163.45 1028.89Q163.45 1023.29 162.64 1020.39Q161.83 1017.49 159.34 1017.49Q157.72 1017.49 156.30 1018.77Q154.89 1020.05 154.35 1021.33L153.74 1022.61Q153.88 1027.27 153.88 1032.60Q153.88 1037.92 153.54 1038.19Q151.51 1040.01 146.12 1040.01Q145.58 1040.01 145.58 1039.81Q146.12 1036.84 146.12 1025.18Z M192.66 1016.81Q192.66 1014.86 190.57 1014.86Q187.80 1014.86 185.71 1017.69Q183.62 1020.52 183.62 1024.50Q183.62 1025.45 183.89 1025.45Q186.32 1025.38 189.49 1022.65Q192.66 1019.91 192.66 1016.81ZM198.53 1038.26Q196.23 1039.81 189.56 1039.81Q182.88 1039.81 179.30 1035.83Q175.73 1031.85 175.73 1025.21Q175.73 1018.57 180.01 1013.68Q184.30 1008.79 192.05 1008.79Q195.22 1008.79 197.89 1010.47Q200.55 1012.16 200.55 1016.37Q200.55 1020.59 196.87 1024.70Q193.20 1028.82 186.86 1030.98Q186.86 1031.79 188.51 1032.29Q190.16 1032.80 191.78 1032.80Q196.91 1032.80 199.88 1030.98Q199.94 1030.91 200.08 1030.91Q200.21 1030.91 200.21 1032.19Q200.21 1036.10 198.53 1038.26Z M205.74 1029.16 205.61 1013.84Q205.61 1009.86 205.88 1009.59Q206.62 1008.85 208.44 1008.28Q210.26 1007.71 211.85 1007.71Q213.43 1007.71 213.43 1008.04Q213.23 1009.86 213.23 1012.19Q213.23 1014.52 213.37 1014.52Q213.50 1014.52 213.64 1014.35Q213.77 1014.18 214.07 1013.81Q214.38 1013.44 215.36 1012.49Q216.33 1011.55 217.48 1010.88Q220.38 1008.99 223.69 1008.99Q224.23 1009.86 224.23 1011.69Q224.23 1015.53 223.28 1017.15L223.01 1017.69L222.13 1017.55Q217.28 1017.55 214.51 1021.53Q213.43 1023.15 213.43 1023.96V1029.90Q213.43 1037.99 213.23 1038.19Q211.34 1040.01 205.81 1040.01Q205.27 1040.01 205.27 1039.81Q205.74 1037.18 205.74 1029.16Z M243.18 1016.81Q243.18 1014.86 241.09 1014.86Q238.32 1014.86 236.23 1017.69Q234.14 1020.52 234.14 1024.50Q234.14 1025.45 234.41 1025.45Q236.84 1025.38 240.01 1022.65Q243.18 1019.91 243.18 1016.81ZM249.05 1038.26Q246.75 1039.81 240.08 1039.81Q233.40 1039.81 229.82 1035.83Q226.25 1031.85 226.25 1025.21Q226.25 1018.57 230.53 1013.68Q234.82 1008.79 242.57 1008.79Q245.74 1008.79 248.41 1010.47Q251.07 1012.16 251.07 1016.37Q251.07 1020.59 247.39 1024.70Q243.72 1028.82 237.38 1030.98Q237.38 1031.79 239.03 1032.29Q240.68 1032.80 242.30 1032.80Q247.43 1032.80 250.40 1030.98Q250.46 1030.91 250.60 1030.91Q250.73 1030.91 250.73 1032.19Q250.73 1036.10 249.05 1038.26Z M272.52 1011.89 272.59 1004.60Q272.59 1001.70 272.45 1001.43Q271.71 1000.69 270.53 997.86Q269.35 995.03 269.35 994.22Q270.09 993.47 293.03 993.47Q298.69 993.47 298.69 993.74Q298.69 995.16 298.05 996.85Q297.41 998.53 296.70 999.54Q295.99 1000.56 295.69 1000.46Q295.39 1000.35 292.92 1000.35Q290.46 1000.35 286.08 1000.66Q281.69 1000.96 281.29 1001.37Q280.88 1001.77 280.88 1008.79L280.95 1011.62Q283.65 1011.55 288.91 1011.55Q294.17 1011.55 294.17 1011.75Q294.17 1014.18 292.55 1017.28Q291.95 1018.36 291.81 1018.30Q290.06 1018.30 285.81 1018.60Q281.56 1018.90 280.88 1019.31Q280.82 1019.37 280.82 1024.97Q280.82 1030.57 281.15 1030.91Q282.23 1031.99 292.76 1031.99Q297.00 1031.99 298.49 1031.75Q299.97 1031.52 299.97 1031.58Q299.97 1033.20 298.89 1035.43Q297.81 1037.65 296.60 1038.80Q295.93 1039.47 284.49 1039.47Q273.06 1039.47 272.66 1038.94Q272.25 1038.60 272.25 1032.43Q272.25 1026.25 272.39 1019.37Q271.17 1018.30 270.06 1016.00Q268.95 1013.71 268.95 1012.09Q268.95 1012.02 272.52 1011.89Z M313.66 1039.74Q311.78 1039.74 310.56 1039.34Q310.56 1037.92 306.28 1025.07Q302.00 1012.23 302.00 1009.53Q302.00 1009.39 302.70 1008.95Q303.41 1008.52 305.17 1008.04Q306.92 1007.57 309.15 1007.57Q313.26 1024.30 315.35 1028.95Q315.42 1029.29 315.62 1028.95Q316.83 1026.79 319.33 1017.52Q321.83 1008.25 322.10 1005.41Q322.16 1005.01 323.58 1004.70Q325.00 1004.40 327.29 1004.40Q329.58 1004.40 330.39 1005.08Q330.39 1007.03 325.60 1022.51Q320.81 1037.99 320.27 1038.53Q319.33 1039.47 315.08 1039.68Z M350.02 1016.81Q350.02 1014.86 347.93 1014.86Q345.16 1014.86 343.07 1017.69Q340.98 1020.52 340.98 1024.50Q340.98 1025.45 341.25 1025.45Q343.68 1025.38 346.85 1022.65Q350.02 1019.91 350.02 1016.81ZM355.89 1038.26Q353.60 1039.81 346.92 1039.81Q340.24 1039.81 336.67 1035.83Q333.09 1031.85 333.09 1025.21Q333.09 1018.57 337.37 1013.68Q341.66 1008.79 349.41 1008.79Q352.58 1008.79 355.25 1010.47Q357.91 1012.16 357.91 1016.37Q357.91 1020.59 354.24 1024.70Q350.56 1028.82 344.22 1030.98Q344.22 1031.79 345.87 1032.29Q347.52 1032.80 349.14 1032.80Q354.27 1032.80 357.24 1030.98Q357.31 1030.91 357.44 1030.91Q357.57 1030.91 357.57 1032.19Q357.57 1036.10 355.89 1038.26Z M363.11 1029.16 362.97 1013.84Q362.97 1009.86 363.24 1009.59Q363.98 1008.85 365.80 1008.28Q367.62 1007.71 369.21 1007.71Q370.80 1007.71 370.80 1008.04Q370.59 1009.86 370.59 1012.19Q370.59 1014.52 370.73 1014.52Q370.86 1014.52 371.00 1014.35Q371.13 1014.18 371.44 1013.81Q371.74 1013.44 372.72 1012.49Q373.70 1011.55 374.84 1010.88Q377.74 1008.99 381.05 1008.99Q381.59 1009.86 381.59 1011.69Q381.59 1015.53 380.64 1017.15L380.37 1017.69L379.50 1017.55Q374.64 1017.55 371.87 1021.53Q370.80 1023.15 370.80 1023.96V1029.90Q370.80 1037.99 370.59 1038.19Q368.70 1040.01 363.17 1040.01Q362.63 1040.01 362.63 1039.81Q363.11 1037.18 363.11 1029.16Z M409.17 1019.44 409.24 1037.38Q409.24 1042.65 407.86 1046.76Q406.48 1050.87 404.49 1053.10Q402.50 1055.33 399.93 1056.74Q395.75 1059.10 391.43 1059.10Q391.23 1059.10 390.63 1058.09Q390.02 1057.08 389.48 1055.36Q388.94 1053.64 388.94 1052.16Q391.50 1052.16 394.07 1051.18Q396.63 1050.20 397.64 1049.09Q398.65 1047.97 399.66 1046.29Q401.75 1042.98 401.75 1035.56L401.69 1033.61Q401.69 1033.20 401.55 1033.20Q401.42 1033.20 401.28 1033.40Q401.15 1033.61 400.95 1033.91Q400.74 1034.21 399.97 1034.99Q399.19 1035.77 398.31 1036.37Q395.95 1037.99 393.56 1037.99Q391.17 1037.99 389.78 1037.38Q388.40 1036.78 387.49 1035.83Q386.58 1034.89 385.97 1033.17Q385.36 1031.45 385.03 1029.96Q384.69 1028.48 384.55 1025.92Q384.29 1022.34 384.29 1018.50Q384.29 1013.17 384.82 1009.80L385.03 1008.85Q385.03 1008.38 387.08 1007.91Q389.14 1007.44 390.49 1007.44L392.65 1007.77Q391.91 1014.45 391.91 1019.04Q391.91 1023.62 392.85 1026.66Q393.80 1029.69 396.02 1029.69Q398.25 1029.69 399.56 1028.38Q400.88 1027.06 401.22 1025.78L401.55 1024.50Q401.42 1020.25 401.42 1015.36Q401.42 1010.47 401.75 1010.13Q402.63 1009.26 404.82 1008.79Q407.02 1008.31 408.36 1008.31Q409.71 1008.31 409.71 1008.52Q409.17 1011.69 409.17 1019.44Z M448.23 1040.35Q438.38 1040.35 433.32 1034.69Q428.26 1029.02 428.26 1020.05Q428.26 1012.43 431.64 1005.88Q433.59 1002.04 436.56 999.14Q439.53 996.24 444.59 994.35Q449.64 992.46 456.05 992.46Q458.21 992.46 459.90 992.87Q461.58 993.27 461.58 993.41Q461.58 996.64 461.14 1000.79Q460.71 1004.94 460.64 1005.01Q460.30 1005.35 457.84 1006.09Q455.38 1006.83 454.16 1006.83V1006.42Q454.16 1003.39 453.29 1002.18Q452.41 1000.96 450.25 1000.96Q445.46 1000.96 441.35 1005.99Q437.23 1011.01 437.23 1019.78Q437.23 1024.43 439.53 1028.14Q440.74 1030.10 443.07 1031.31Q445.39 1032.53 448.57 1032.53Q454.91 1032.53 460.91 1026.66Q461.18 1026.66 462.02 1027.50Q462.86 1028.35 463.67 1029.76Q465.36 1032.46 465.36 1033.07Q465.36 1033.67 463.27 1035.33Q461.18 1036.98 456.93 1038.67Q452.68 1040.35 448.23 1040.35Z M469.61 1025.18 469.41 1001.77Q469.41 995.23 469.74 994.89Q470.55 994.08 472.38 993.34Q474.20 992.60 475.88 992.60Q477.57 992.60 477.57 992.87Q477.50 993.47 477.30 1001.70Q477.10 1009.93 477.10 1012.49V1013.10Q477.10 1013.44 477.30 1013.44L478.65 1012.09Q479.39 1011.42 481.65 1010.24Q483.91 1009.05 485.90 1009.05Q487.89 1009.05 489.20 1009.73Q490.52 1010.40 491.40 1011.35Q492.27 1012.29 492.88 1014.08Q493.49 1015.87 493.79 1017.39Q494.09 1018.90 494.30 1021.53Q494.50 1025.11 494.50 1030.57L494.23 1039.54Q494.03 1040.08 491.94 1040.49Q489.84 1040.89 488.50 1040.89L486.27 1040.55Q486.94 1034.48 486.94 1028.89Q486.94 1023.29 486.13 1020.39Q485.33 1017.49 482.83 1017.49Q481.21 1017.49 479.79 1018.77Q478.38 1020.05 477.84 1021.33L477.23 1022.61Q477.37 1027.27 477.37 1032.60Q477.37 1037.92 477.03 1038.19Q475.01 1040.01 469.61 1040.01Q469.07 1040.01 469.07 1039.81Q469.61 1036.84 469.61 1025.18Z M504.25 997.99Q506.10 997.99 507.25 999.21Q508.39 1000.42 508.39 1002.38Q508.39 1004.33 506.88 1005.72Q505.36 1007.10 503.50 1007.10Q501.65 1007.10 500.54 1005.92Q499.42 1004.74 499.42 1002.78Q499.42 1000.83 500.91 999.41Q502.39 997.99 504.25 997.99ZM507.65 1014.79 507.52 1025.72Q507.52 1030.98 507.82 1033.44Q508.12 1035.90 509.54 1038.06Q509.54 1038.73 506.77 1040.22Q504.01 1041.70 502.05 1041.70Q501.45 1041.70 500.84 1039.68Q500.23 1037.65 500.06 1035.83Q499.89 1034.01 499.89 1023.56Q499.89 1013.10 500.37 1012.16Q501.92 1010.94 505.83 1010.94Q507.38 1010.94 507.72 1011.35Z M514.26 1028.68 514.53 1004.27Q514.53 998.94 514.40 997.05Q514.26 995.16 514.26 995.03Q514.26 994.35 516.52 993.47Q518.78 992.60 520.53 992.60Q522.29 992.60 522.29 992.87Q521.95 995.36 521.95 1010.40L521.82 1026.93Q521.82 1031.58 521.95 1032.66Q522.29 1035.63 523.91 1038.06Q523.91 1038.73 521.14 1040.22Q518.38 1041.70 516.42 1041.70Q515.88 1041.70 515.21 1039.68Q514.53 1037.65 514.40 1036.17Q514.26 1034.69 514.26 1028.68Z M546.17 1009.32 546.03 999.34Q546.03 995.16 546.23 994.96Q547.04 994.15 548.90 993.37Q550.75 992.60 552.44 992.60Q554.12 992.60 554.12 992.87Q553.59 1004.06 553.59 1016.68Q553.59 1029.29 553.99 1031.72Q554.46 1035.36 556.22 1037.11Q556.22 1037.79 553.42 1039.24Q550.62 1040.69 548.66 1040.69Q548.46 1040.69 548.05 1040.15Q546.77 1038.46 546.50 1035.56Q546.50 1035.36 546.37 1035.36L546.17 1035.50Q543.33 1039.54 537.73 1039.54Q533.22 1039.54 530.58 1035.97Q527.95 1032.39 527.95 1027.94Q527.95 1020.32 532.68 1014.96Q537.40 1009.59 546.17 1009.32ZM546.30 1016.41Q546.30 1016.27 545.56 1016.27H545.29Q540.97 1016.27 538.51 1019.04Q536.05 1021.80 536.05 1026.05Q536.05 1028.55 537.23 1030.13Q538.41 1031.72 540.80 1031.72Q543.20 1031.72 544.65 1029.63Q546.10 1027.54 546.10 1026.32Q546.10 1018.84 546.30 1016.41Z M599.92 999.75Q598.84 999.61 597.46 999.61Q596.08 999.61 594.09 999.88Q592.10 1000.15 589.97 1000.72Q587.85 1001.30 586.50 1002.51Q585.15 1003.73 585.15 1005.45Q585.15 1007.17 587.21 1008.48Q589.27 1009.80 592.17 1010.91Q595.07 1012.02 598.00 1013.44Q600.94 1014.86 602.99 1017.59Q605.05 1020.32 605.05 1024.16Q605.05 1030.98 598.54 1035.73Q592.03 1040.49 582.12 1040.49Q577.13 1040.49 574.70 1039.95Q574.09 1039.34 574.09 1032.70Q574.09 1026.05 574.36 1024.70Q574.56 1024.10 576.72 1023.22Q578.88 1022.34 580.90 1022.34Q580.90 1030.30 582.59 1031.99Q583.26 1032.66 585.15 1032.66Q589.47 1032.66 592.67 1030.23Q595.88 1027.81 595.88 1024.50Q595.88 1022.28 593.79 1020.59Q591.69 1018.90 588.69 1017.65Q585.69 1016.41 582.72 1015.02Q579.76 1013.64 577.66 1011.21Q575.57 1008.79 575.57 1005.48Q575.57 1000.56 581.48 996.48Q587.38 992.39 598.57 992.39Q601.20 992.39 601.54 992.73Q601.61 992.93 601.61 993.71Q601.61 994.49 601.14 996.71Q600.67 998.94 599.92 999.75Z M610.31 1025.18 610.11 1001.77Q610.11 995.23 610.45 994.89Q611.25 994.08 613.08 993.34Q614.90 992.60 616.58 992.60Q618.27 992.60 618.27 992.87Q618.20 993.47 618.00 1001.70Q617.80 1009.93 617.80 1012.49V1013.10Q617.80 1013.44 618.00 1013.44L619.35 1012.09Q620.09 1011.42 622.35 1010.24Q624.61 1009.05 626.60 1009.05Q628.59 1009.05 629.90 1009.73Q631.22 1010.40 632.10 1011.35Q632.97 1012.29 633.58 1014.08Q634.19 1015.87 634.49 1017.39Q634.80 1018.90 635.00 1021.53Q635.20 1025.11 635.20 1030.57L634.93 1039.54Q634.73 1040.08 632.64 1040.49Q630.55 1040.89 629.20 1040.89L626.97 1040.55Q627.65 1034.48 627.65 1028.89Q627.65 1023.29 626.84 1020.39Q626.03 1017.49 623.53 1017.49Q621.91 1017.49 620.50 1018.77Q619.08 1020.05 618.54 1021.33L617.93 1022.61Q618.07 1027.27 618.07 1032.60Q618.07 1037.92 617.73 1038.19Q615.71 1040.01 610.31 1040.01Q609.77 1040.01 609.77 1039.81Q610.31 1036.84 610.31 1025.18Z M644.95 997.99Q646.80 997.99 647.95 999.21Q649.09 1000.42 649.09 1002.38Q649.09 1004.33 647.58 1005.72Q646.06 1007.10 644.20 1007.10Q642.35 1007.10 641.24 1005.92Q640.12 1004.74 640.12 1002.78Q640.12 1000.83 641.61 999.41Q643.09 997.99 644.95 997.99ZM648.35 1014.79 648.22 1025.72Q648.22 1030.98 648.52 1033.44Q648.82 1035.90 650.24 1038.06Q650.24 1038.73 647.48 1040.22Q644.71 1041.70 642.75 1041.70Q642.15 1041.70 641.54 1039.68Q640.93 1037.65 640.76 1035.83Q640.60 1034.01 640.60 1023.56Q640.60 1013.10 641.07 1012.16Q642.62 1010.94 646.53 1010.94Q648.08 1010.94 648.42 1011.35Z M663.12 1023.08 663.19 1025.58V1030.71Q663.19 1037.92 662.92 1038.19Q662.04 1039.07 659.89 1039.54Q657.73 1040.01 656.35 1040.01Q654.96 1040.01 654.96 1039.81Q655.43 1036.78 655.43 1029.83L655.23 1014.65Q655.23 1010.47 655.57 1010.13Q656.31 1009.39 658.13 1008.82Q659.95 1008.25 661.54 1008.25Q663.12 1008.25 663.12 1008.58Q662.92 1010.20 662.92 1011.82Q662.92 1013.44 663.12 1013.44L663.33 1013.30Q663.66 1012.83 664.34 1012.12Q665.01 1011.42 667.20 1010.24Q669.40 1009.05 671.39 1009.05Q673.38 1009.05 674.76 1009.76Q676.14 1010.47 677.02 1011.48Q677.90 1012.49 678.54 1014.38Q679.18 1016.27 679.51 1017.89Q679.85 1019.51 680.05 1022.21Q680.26 1025.92 680.26 1031.65L680.05 1039.54Q680.05 1040.01 677.83 1040.45Q675.60 1040.89 674.25 1040.89L672.03 1040.55Q672.70 1034.48 672.70 1028.78Q672.70 1023.08 671.96 1020.22Q671.22 1017.35 668.99 1017.35Q666.77 1017.35 665.38 1018.57Q664.00 1019.78 663.60 1020.99L663.12 1022.14Z M701.91 1016.81Q701.91 1014.86 699.82 1014.86Q697.05 1014.86 694.96 1017.69Q692.87 1020.52 692.87 1024.50Q692.87 1025.45 693.14 1025.45Q695.57 1025.38 698.74 1022.65Q701.91 1019.91 701.91 1016.81ZM707.78 1038.26Q705.48 1039.81 698.81 1039.81Q692.13 1039.81 688.55 1035.83Q684.98 1031.85 684.98 1025.21Q684.98 1018.57 689.26 1013.68Q693.54 1008.79 701.30 1008.79Q704.47 1008.79 707.14 1010.47Q709.80 1012.16 709.80 1016.37Q709.80 1020.59 706.12 1024.70Q702.45 1028.82 696.11 1030.98Q696.11 1031.79 697.76 1032.29Q699.41 1032.80 701.03 1032.80Q706.16 1032.80 709.13 1030.98Q709.19 1030.91 709.33 1030.91Q709.46 1030.91 709.46 1032.19Q709.46 1036.10 707.78 1038.26Z M733.81 1030.50Q733.81 1034.15 730.41 1037.01Q727.00 1039.88 723.05 1041.13Q719.11 1042.38 716.14 1042.38Q715.80 1042.38 715.20 1041.57Q713.51 1039.34 713.51 1036.37V1035.90Q718.77 1035.90 721.54 1034.08Q724.30 1032.26 724.30 1030.30Q724.30 1029.02 722.62 1027.60Q720.93 1026.19 718.91 1025.11Q716.88 1024.03 715.20 1022.24Q713.51 1020.45 713.51 1018.50Q713.51 1014.38 718.64 1010.94Q723.76 1007.50 729.56 1007.50Q730.24 1007.50 731.32 1009.36Q732.40 1011.21 732.46 1013.17Q731.11 1013.17 728.42 1013.98Q723.09 1015.67 723.09 1018.16Q723.09 1019.91 728.35 1022.95Q730.37 1024.10 732.06 1026.12Q733.74 1028.14 733.81 1030.50Z M742.58 1024.77 739.82 1024.43Q739.82 1018.03 739.24 1010.47Q738.67 1002.92 738.06 998.60L737.52 994.22Q738.13 993.61 741.57 993.41L742.65 993.34Q746.29 993.34 747.71 994.28Q747.91 994.42 747.91 994.52Q747.91 994.62 747.74 995.40Q747.57 996.17 747.37 997.22Q747.17 998.26 746.96 999.48Q746.49 1002.31 746.49 1003.52Q746.49 1004.74 746.29 1009.19Q745.55 1021.94 745.35 1024.30Q744.00 1024.77 742.58 1024.77ZM745.92 1030.81Q747.23 1032.12 747.23 1034.01Q747.23 1035.90 745.92 1037.22Q744.60 1038.53 742.72 1038.53Q740.83 1038.53 739.51 1037.22Q738.20 1035.90 738.20 1034.01Q738.20 1032.12 739.51 1030.81Q740.83 1029.49 742.72 1029.49Q744.60 1029.49 745.92 1030.81Z" fill="#FFD93D"/>
<rect x="954.00" y="96.00" width="1356.00" height="230.00" rx="38.00" fill="#FFD93D" /><path d="M1053.42 190.31H1052.58Q1051.31 194.27 1049.75 198.93Q1048.20 203.59 1046.51 208.74Q1044.81 213.89 1043.26 219.40L1040.15 235.36Q1039.30 238.18 1038.67 240.86Q1038.03 243.55 1037.40 245.95Q1036.76 248.35 1036.20 250.61Q1035.63 252.87 1035.07 254.98Q1033.23 255.55 1030.97 256.11Q1028.71 256.68 1025.61 256.68Q1018.55 256.68 1015.02 254.21Q1011.49 251.74 1011.49 247.36Q1011.49 245.38 1012.05 243.41Q1012.62 241.43 1013.32 238.75Q1014.45 234.23 1016.71 227.10Q1018.97 219.97 1021.72 211.71Q1024.48 203.45 1027.23 195.54Q1029.99 187.63 1032.24 181.35Q1034.50 175.06 1035.63 172.10Q1038.03 170.69 1042.98 169.42Q1047.92 168.15 1052.72 168.15Q1059.78 168.15 1065.29 170.19Q1070.79 172.24 1072.20 176.76Q1074.75 183.96 1077.64 193.63Q1080.54 203.30 1083.57 213.82Q1086.61 224.34 1089.43 234.30Q1092.26 244.25 1094.37 252.16Q1092.68 254.00 1089.29 255.27Q1085.90 256.54 1081.24 256.54Q1074.32 256.54 1071.64 254.21Q1068.96 251.88 1067.69 247.08L1064.16 233.52L1061.33 218.98Q1059.92 213.47 1058.51 208.39Q1057.10 203.30 1055.83 198.72Q1054.55 194.13 1053.42 190.31ZM1029.56 237.33 1039.30 218.27H1070.37L1073.33 237.33Z M1164.41 212.62Q1164.41 225.05 1158.27 231.26Q1152.12 237.48 1142.52 237.48Q1140.69 237.48 1138.36 237.26Q1136.03 237.05 1134.47 236.77V187.63Q1136.59 187.35 1138.64 187.21Q1140.69 187.07 1142.66 187.07Q1149.30 187.07 1154.17 189.96Q1159.04 192.86 1161.73 198.50Q1164.41 204.15 1164.41 212.62ZM1189.83 212.20Q1189.83 196.81 1183.68 186.85Q1177.54 176.90 1166.60 172.03Q1155.65 167.16 1140.97 167.16Q1135.60 167.16 1128.83 167.79Q1122.05 168.43 1115.98 170.40Q1113.29 171.39 1111.60 173.02Q1109.91 174.64 1109.91 177.61V243.55Q1109.91 250.89 1117.67 253.85Q1123.32 255.97 1130.45 256.68Q1137.58 257.38 1142.38 257.38Q1156.64 257.38 1167.30 252.37Q1177.96 247.36 1183.90 237.33Q1189.83 227.31 1189.83 212.20Z M1266.64 234.09Q1264.80 235.50 1261.91 236.49Q1259.01 237.48 1255.20 237.48Q1250.12 237.48 1246.80 236.20Q1243.48 234.93 1242.49 231.83Q1238.54 219.26 1236.00 211.64Q1233.46 204.01 1232.05 198.22H1231.34Q1230.92 206.55 1230.70 213.40Q1230.49 220.25 1230.42 226.67Q1230.35 233.10 1230.14 239.81Q1229.93 246.51 1229.50 254.56Q1227.67 255.13 1224.70 255.69Q1221.74 256.26 1218.77 256.26Q1212.70 256.26 1209.17 254.28Q1205.64 252.30 1205.64 247.08Q1205.64 243.55 1205.92 237.40Q1206.21 231.26 1206.70 223.57Q1207.19 215.87 1207.69 207.40Q1208.18 198.93 1208.75 190.60Q1209.31 182.27 1209.74 175.06Q1210.86 173.23 1214.68 171.11Q1218.49 168.99 1225.41 168.99Q1232.89 168.99 1237.20 171.32Q1241.51 173.65 1243.34 178.88Q1245.04 183.40 1247.01 189.54Q1248.99 195.68 1250.97 201.96Q1252.94 208.25 1254.50 213.19H1255.20Q1258.59 201.47 1262.05 190.24Q1265.51 179.02 1268.19 171.68Q1270.31 170.55 1273.70 169.77Q1277.09 168.99 1281.04 168.99Q1287.96 168.99 1292.34 171.04Q1296.72 173.09 1297.42 176.90Q1297.99 179.72 1298.62 185.51Q1299.26 191.30 1299.96 198.79Q1300.67 206.27 1301.38 214.39Q1302.08 222.51 1302.72 230.13Q1303.35 237.76 1303.78 243.90Q1304.20 250.04 1304.34 253.57Q1301.94 254.98 1299.33 255.62Q1296.72 256.26 1292.62 256.26Q1287.40 256.26 1283.65 254.42Q1279.91 252.58 1279.63 247.22Q1279.07 236.91 1278.78 228.01Q1278.50 219.12 1278.36 211.78Q1278.22 204.43 1277.94 198.93H1277.23Q1275.82 204.43 1273.14 212.77Q1270.45 221.10 1266.64 234.09Z M1323.97 192.71H1348.68V254.98Q1347.12 255.41 1343.88 255.83Q1340.63 256.26 1337.24 256.26Q1329.90 256.26 1326.93 253.64Q1323.97 251.03 1323.97 244.54ZM1348.68 225.33H1323.97V169.27Q1325.66 168.99 1328.98 168.50Q1332.30 168.00 1335.41 168.00Q1342.47 168.00 1345.57 170.40Q1348.68 172.80 1348.68 179.72Z M1397.25 237.62Q1404.17 237.62 1406.99 235.36Q1409.82 233.10 1409.82 230.27Q1409.82 227.45 1407.56 225.83Q1405.30 224.20 1401.21 222.79L1395.27 220.81Q1387.09 217.99 1380.80 214.81Q1374.52 211.64 1370.99 206.55Q1367.46 201.47 1367.46 193.28Q1367.46 181.28 1376.71 174.08Q1385.96 166.87 1402.62 166.87Q1410.81 166.87 1417.16 168.43Q1423.52 169.98 1427.19 173.16Q1430.86 176.33 1430.86 181.28Q1430.86 184.81 1429.16 187.49Q1427.47 190.17 1425.07 192.01Q1421.96 190.03 1416.74 188.55Q1411.51 187.07 1405.30 187.07Q1398.95 187.07 1395.98 188.83Q1393.02 190.60 1393.02 193.28Q1393.02 195.40 1394.92 196.74Q1396.83 198.08 1400.36 199.21L1407.84 201.61Q1421.26 205.85 1428.32 212.55Q1435.38 219.26 1435.38 230.56Q1435.38 242.56 1425.85 250.11Q1416.31 257.67 1398.10 257.67Q1389.49 257.67 1382.57 255.83Q1375.65 254.00 1371.55 250.32Q1367.46 246.65 1367.46 241.43Q1367.46 237.33 1369.86 234.44Q1372.26 231.54 1375.08 229.99Q1379.04 233.10 1384.76 235.36Q1390.47 237.62 1397.25 237.62Z M1479.01 237.62Q1485.93 237.62 1488.75 235.36Q1491.57 233.10 1491.57 230.27Q1491.57 227.45 1489.32 225.83Q1487.06 224.20 1482.96 222.79L1477.03 220.81Q1468.84 217.99 1462.56 214.81Q1456.27 211.64 1452.74 206.55Q1449.21 201.47 1449.21 193.28Q1449.21 181.28 1458.46 174.08Q1467.71 166.87 1484.37 166.87Q1492.56 166.87 1498.92 168.43Q1505.27 169.98 1508.94 173.16Q1512.61 176.33 1512.61 181.28Q1512.61 184.81 1510.92 187.49Q1509.22 190.17 1506.82 192.01Q1503.72 190.03 1498.49 188.55Q1493.27 187.07 1487.06 187.07Q1480.70 187.07 1477.74 188.83Q1474.77 190.60 1474.77 193.28Q1474.77 195.40 1476.68 196.74Q1478.58 198.08 1482.11 199.21L1489.60 201.61Q1503.01 205.85 1510.07 212.55Q1517.13 219.26 1517.13 230.56Q1517.13 242.56 1507.60 250.11Q1498.07 257.67 1479.85 257.67Q1471.24 257.67 1464.32 255.83Q1457.40 254.00 1453.31 250.32Q1449.21 246.65 1449.21 241.43Q1449.21 237.33 1451.61 234.44Q1454.01 231.54 1456.84 229.99Q1460.79 233.10 1466.51 235.36Q1472.23 237.62 1479.01 237.62Z M1534.50 192.71H1559.21V254.98Q1557.66 255.41 1554.41 255.83Q1551.16 256.26 1547.77 256.26Q1540.43 256.26 1537.47 253.64Q1534.50 251.03 1534.50 244.54ZM1559.21 225.33H1534.50V169.27Q1536.19 168.99 1539.51 168.50Q1542.83 168.00 1545.94 168.00Q1553.00 168.00 1556.10 170.40Q1559.21 172.80 1559.21 179.72Z M1666.67 212.20Q1666.67 226.89 1660.81 237.05Q1654.95 247.22 1644.85 252.44Q1634.75 257.67 1621.90 257.67Q1609.05 257.67 1598.96 252.44Q1588.86 247.22 1583.07 237.05Q1577.28 226.89 1577.28 212.20Q1577.28 197.52 1583.21 187.42Q1589.15 177.32 1599.24 172.10Q1609.34 166.87 1621.90 166.87Q1634.47 166.87 1644.64 172.10Q1654.80 177.32 1660.73 187.42Q1666.67 197.52 1666.67 212.20ZM1641.25 212.20Q1641.25 199.63 1636.02 193.21Q1630.80 186.78 1621.90 186.78Q1613.29 186.78 1608.00 193.14Q1602.70 199.49 1602.70 212.20Q1602.70 225.05 1608.00 231.40Q1613.29 237.76 1622.05 237.76Q1630.80 237.76 1636.02 231.40Q1641.25 225.05 1641.25 212.20Z M1684.74 198.64H1707.47Q1708.04 205.14 1708.25 211.07Q1708.46 217.00 1708.46 222.30Q1708.46 227.59 1708.46 232.67V255.13Q1707.05 255.41 1703.87 255.83Q1700.69 256.26 1697.45 256.26Q1690.39 256.26 1687.56 253.78Q1684.74 251.31 1684.74 244.96ZM1762.26 225.47H1739.53Q1738.68 215.59 1738.61 207.26Q1738.54 198.93 1738.54 191.44V169.13Q1740.09 168.85 1743.20 168.43Q1746.30 168.00 1749.55 168.00Q1756.61 168.00 1759.43 170.48Q1762.26 172.95 1762.26 179.30ZM1762.26 217.85V252.16Q1760.28 254.00 1756.54 255.13Q1752.80 256.26 1747.57 256.26Q1742.35 256.26 1737.69 254.70Q1733.03 253.15 1730.06 247.22L1716.09 218.70Q1714.67 215.73 1713.47 213.12Q1712.27 210.51 1711.14 207.68Q1710.01 204.86 1708.60 201.47L1684.74 206.69V173.93Q1686.72 171.11 1690.81 169.70Q1694.91 168.29 1699.57 168.29Q1704.79 168.29 1709.52 169.91Q1714.25 171.53 1717.07 177.32L1731.19 205.85Q1732.61 208.67 1733.81 211.35Q1735.01 214.04 1736.21 216.86Q1737.41 219.68 1738.68 223.07Z M1810.83 237.62Q1817.75 237.62 1820.58 235.36Q1823.40 233.10 1823.40 230.27Q1823.40 227.45 1821.14 225.83Q1818.88 224.20 1814.79 222.79L1808.86 220.81Q1800.67 217.99 1794.38 214.81Q1788.10 211.64 1784.57 206.55Q1781.04 201.47 1781.04 193.28Q1781.04 181.28 1790.29 174.08Q1799.54 166.87 1816.20 166.87Q1824.39 166.87 1830.74 168.43Q1837.10 169.98 1840.77 173.16Q1844.44 176.33 1844.44 181.28Q1844.44 184.81 1842.74 187.49Q1841.05 190.17 1838.65 192.01Q1835.54 190.03 1830.32 188.55Q1825.09 187.07 1818.88 187.07Q1812.53 187.07 1809.56 188.83Q1806.60 190.60 1806.60 193.28Q1806.60 195.40 1808.50 196.74Q1810.41 198.08 1813.94 199.21L1821.42 201.61Q1834.84 205.85 1841.90 212.55Q1848.96 219.26 1848.96 230.56Q1848.96 242.56 1839.43 250.11Q1829.89 257.67 1811.68 257.67Q1803.07 257.67 1796.15 255.83Q1789.23 254.00 1785.13 250.32Q1781.04 246.65 1781.04 241.43Q1781.04 237.33 1783.44 234.44Q1785.84 231.54 1788.66 229.99Q1792.62 233.10 1798.34 235.36Q1804.05 237.62 1810.83 237.62Z M1983.66 212.20Q1983.66 226.89 1977.80 237.05Q1971.94 247.22 1961.85 252.44Q1951.75 257.67 1938.90 257.67Q1926.05 257.67 1915.96 252.44Q1905.86 247.22 1900.07 237.05Q1894.28 226.89 1894.28 212.20Q1894.28 197.52 1900.21 187.42Q1906.14 177.32 1916.24 172.10Q1926.34 166.87 1938.90 166.87Q1951.47 166.87 1961.64 172.10Q1971.80 177.32 1977.73 187.42Q1983.66 197.52 1983.66 212.20ZM1958.25 212.20Q1958.25 199.63 1953.02 193.21Q1947.80 186.78 1938.90 186.78Q1930.29 186.78 1924.99 193.14Q1919.70 199.49 1919.70 212.20Q1919.70 225.05 1924.99 231.40Q1930.29 237.76 1939.04 237.76Q1947.80 237.76 1953.02 231.40Q1958.25 225.05 1958.25 212.20Z M2026.31 209.23H2033.08Q2038.87 209.23 2042.47 206.34Q2046.07 203.45 2046.07 198.08Q2046.07 192.71 2042.76 189.82Q2039.44 186.93 2033.08 186.93Q2030.83 186.93 2029.34 187.00Q2027.86 187.07 2026.31 187.35ZM2034.64 228.58H2001.74V177.61Q2001.74 174.64 2003.43 173.02Q2005.13 171.39 2007.81 170.40Q2012.61 168.71 2019.25 167.93Q2025.88 167.16 2031.11 167.16Q2050.45 167.16 2060.83 175.49Q2071.21 183.82 2071.21 198.08Q2071.21 207.26 2066.69 214.11Q2062.17 220.95 2053.98 224.77Q2045.79 228.58 2034.64 228.58ZM2001.74 217.85H2026.45V254.98Q2024.89 255.41 2021.65 255.83Q2018.40 256.26 2015.01 256.26Q2007.67 256.26 2004.70 253.64Q2001.74 251.03 2001.74 244.54Z M2087.73 192.71H2111.73V254.28Q2110.18 254.70 2107.22 255.13Q2104.25 255.55 2100.86 255.55Q2094.79 255.55 2091.26 252.02Q2087.73 248.49 2087.73 242.42ZM2111.73 232.39H2087.73V182.69Q2087.73 176.62 2091.26 173.09Q2094.79 169.56 2100.86 169.56Q2104.25 169.56 2107.22 169.98Q2110.18 170.40 2111.73 170.83ZM2100.86 221.24V202.03H2143.50Q2144.49 203.59 2145.27 205.99Q2146.05 208.39 2146.05 211.35Q2146.05 216.58 2143.79 218.91Q2141.53 221.24 2137.57 221.24ZM2100.86 255.55V236.06H2148.02Q2149.01 237.62 2149.79 240.16Q2150.56 242.70 2150.56 245.67Q2150.56 250.89 2148.31 253.22Q2146.05 255.55 2142.09 255.55ZM2100.86 188.90V169.56H2147.46Q2148.45 171.11 2149.22 173.51Q2150.00 175.91 2150.00 178.88Q2150.00 184.10 2147.74 186.50Q2145.48 188.90 2141.53 188.90Z M2169.06 198.64H2191.80Q2192.36 205.14 2192.57 211.07Q2192.78 217.00 2192.78 222.30Q2192.78 227.59 2192.78 232.67V255.13Q2191.37 255.41 2188.19 255.83Q2185.02 256.26 2181.77 256.26Q2174.71 256.26 2171.89 253.78Q2169.06 251.31 2169.06 244.96ZM2246.58 225.47H2223.85Q2223.00 215.59 2222.93 207.26Q2222.86 198.93 2222.86 191.44V169.13Q2224.41 168.85 2227.52 168.43Q2230.63 168.00 2233.87 168.00Q2240.93 168.00 2243.76 170.48Q2246.58 172.95 2246.58 179.30ZM2246.58 217.85V252.16Q2244.61 254.00 2240.86 255.13Q2237.12 256.26 2231.90 256.26Q2226.67 256.26 2222.01 254.70Q2217.35 253.15 2214.39 247.22L2200.41 218.70Q2199.00 215.73 2197.80 213.12Q2196.60 210.51 2195.47 207.68Q2194.34 204.86 2192.93 201.47L2169.06 206.69V173.93Q2171.04 171.11 2175.13 169.70Q2179.23 168.29 2183.89 168.29Q2189.11 168.29 2193.84 169.91Q2198.57 171.53 2201.40 177.32L2215.52 205.85Q2216.93 208.67 2218.13 211.35Q2219.33 214.04 2220.53 216.86Q2221.73 219.68 2223.00 223.07Z" fill="#2D3436"/>
<rect x="1161.94" y="396.00" width="940.11" height="158.76" rx="79.38" fill="#4DAA57" /><path d="M1274.55 499.83H1248.87L1244.75 511.98H1227.21L1252.10 443.19H1271.51L1296.40 511.98H1278.66ZM1270.23 486.89 1261.71 461.71 1253.28 486.89Z M1344.52 465.04V457.30H1361.27V511.88Q1361.27 519.43 1358.29 525.56Q1355.30 531.68 1349.17 535.31Q1343.05 538.93 1333.93 538.93Q1321.78 538.93 1314.24 533.20Q1306.69 527.47 1305.61 517.67H1322.17Q1322.96 520.80 1325.90 522.62Q1328.84 524.43 1333.15 524.43Q1338.34 524.43 1341.43 521.44Q1344.52 518.45 1344.52 511.88V504.14Q1342.07 507.97 1337.76 510.37Q1333.44 512.77 1327.66 512.77Q1320.90 512.77 1315.41 509.29Q1309.92 505.81 1306.74 499.39Q1303.55 492.97 1303.55 484.54Q1303.55 476.12 1306.74 469.75Q1309.92 463.38 1315.41 459.94Q1320.90 456.51 1327.66 456.51Q1333.44 456.51 1337.80 458.87Q1342.16 461.22 1344.52 465.04ZM1332.56 471.12Q1327.56 471.12 1324.08 474.69Q1320.61 478.27 1320.61 484.54Q1320.61 490.81 1324.08 494.49Q1327.56 498.17 1332.56 498.17Q1337.56 498.17 1341.04 494.54Q1344.52 490.91 1344.52 484.64Q1344.52 478.37 1341.04 474.74Q1337.56 471.12 1332.56 471.12Z M1427.62 488.66H1389.69Q1390.09 493.75 1392.98 496.45Q1395.87 499.14 1400.08 499.14Q1406.36 499.14 1408.80 493.85H1426.64Q1425.27 499.24 1421.69 503.56Q1418.12 507.87 1412.72 510.32Q1407.34 512.77 1400.67 512.77Q1392.63 512.77 1386.36 509.34Q1380.09 505.91 1376.56 499.54Q1373.03 493.17 1373.03 484.64Q1373.03 476.12 1376.51 469.75Q1379.99 463.38 1386.26 459.94Q1392.54 456.51 1400.67 456.51Q1408.61 456.51 1414.78 459.85Q1420.96 463.18 1424.44 469.35Q1427.91 475.53 1427.91 483.76Q1427.91 486.11 1427.62 488.66ZM1410.76 479.35Q1410.76 475.04 1407.82 472.49Q1404.88 469.94 1400.47 469.94Q1396.26 469.94 1393.37 472.39Q1390.48 474.84 1389.79 479.35Z M1436.73 494.05H1453.30Q1453.59 496.89 1455.94 498.65Q1458.29 500.42 1461.72 500.42Q1464.86 500.42 1466.58 499.19Q1468.29 497.97 1468.29 496.01Q1468.29 493.66 1465.84 492.53Q1463.39 491.40 1457.90 490.03Q1452.02 488.66 1448.10 487.14Q1444.18 485.62 1441.34 482.34Q1438.50 479.06 1438.50 473.47Q1438.50 468.76 1441.10 464.89Q1443.69 461.02 1448.74 458.77Q1453.79 456.51 1460.74 456.51Q1471.03 456.51 1476.96 461.61Q1482.89 466.71 1483.77 475.13H1468.29Q1467.90 472.29 1465.79 470.63Q1463.68 468.96 1460.25 468.96Q1457.31 468.96 1455.75 470.09Q1454.18 471.22 1454.18 473.18Q1454.18 475.53 1456.68 476.70Q1459.18 477.88 1464.47 479.06Q1470.54 480.62 1474.37 482.14Q1478.19 483.66 1481.08 487.04Q1483.97 490.42 1484.07 496.11Q1484.07 500.91 1481.37 504.68Q1478.68 508.45 1473.63 510.61Q1468.59 512.77 1461.92 512.77Q1454.77 512.77 1449.18 510.32Q1443.60 507.87 1440.36 503.60Q1437.13 499.34 1436.73 494.05Z M1544.34 438.78Q1551.69 438.78 1556.93 441.32Q1562.18 443.87 1564.87 448.28Q1567.57 452.69 1567.57 458.18Q1567.57 464.65 1564.33 468.72Q1561.10 472.78 1556.79 474.25V474.64Q1562.37 476.51 1565.61 480.82Q1568.84 485.13 1568.84 491.89Q1568.84 497.97 1566.05 502.62Q1563.25 507.28 1557.91 509.93Q1552.57 512.57 1545.22 512.57Q1533.46 512.57 1526.45 506.79Q1519.45 501.01 1519.06 489.35H1535.32Q1535.42 493.66 1537.77 496.16Q1540.12 498.66 1544.63 498.66Q1548.46 498.66 1550.56 496.45Q1552.67 494.25 1552.67 490.62Q1552.67 485.92 1549.68 483.81Q1546.69 481.70 1540.12 481.70H1536.99V468.08H1540.12Q1545.12 468.08 1548.21 466.36Q1551.30 464.65 1551.30 460.24Q1551.30 456.71 1549.34 454.75Q1547.38 452.79 1543.95 452.79Q1540.22 452.79 1538.41 455.04Q1536.60 457.30 1536.30 460.63H1519.94Q1520.33 450.14 1526.80 444.46Q1533.27 438.78 1544.34 438.78Z M1638.42 470.63V484.54H1584.03V470.63Z M1679.68 452.50Q1674.09 452.50 1671.64 457.35Q1669.19 462.20 1669.09 472.69Q1671.25 469.25 1675.32 467.29Q1679.38 465.33 1684.28 465.33Q1693.89 465.33 1699.72 471.41Q1705.55 477.49 1705.55 488.37Q1705.55 495.52 1702.66 500.91Q1699.77 506.30 1694.23 509.34Q1688.69 512.38 1681.15 512.38Q1666.06 512.38 1660.18 502.92Q1654.30 493.46 1654.30 475.72Q1654.30 457.10 1660.52 448.04Q1666.74 438.97 1680.46 438.97Q1687.81 438.97 1692.86 441.86Q1697.90 444.75 1700.50 449.46Q1703.10 454.16 1703.59 459.75H1688.01Q1687.22 456.12 1685.26 454.31Q1683.30 452.50 1679.68 452.50ZM1670.47 488.17Q1670.47 492.87 1673.06 495.52Q1675.66 498.17 1680.46 498.17Q1684.77 498.17 1687.27 495.57Q1689.77 492.97 1689.77 488.46Q1689.77 483.86 1687.32 481.21Q1684.87 478.56 1680.27 478.56Q1676.05 478.56 1673.26 481.06Q1670.47 483.56 1670.47 488.17Z M1802.37 443.19 1778.56 489.25V511.98H1761.80V489.25L1737.99 443.19H1757.00L1770.33 472.00L1783.56 443.19Z M1863.33 488.66H1825.40Q1825.80 493.75 1828.69 496.45Q1831.58 499.14 1835.79 499.14Q1842.06 499.14 1844.51 493.85H1862.35Q1860.98 499.24 1857.40 503.56Q1853.82 507.87 1848.43 510.32Q1843.04 512.77 1836.38 512.77Q1828.34 512.77 1822.07 509.34Q1815.80 505.91 1812.27 499.54Q1808.74 493.17 1808.74 484.64Q1808.74 476.12 1812.22 469.75Q1815.70 463.38 1821.97 459.94Q1828.25 456.51 1836.38 456.51Q1844.32 456.51 1850.49 459.85Q1856.66 463.18 1860.14 469.35Q1863.62 475.53 1863.62 483.76Q1863.62 486.11 1863.33 488.66ZM1846.47 479.35Q1846.47 475.04 1843.53 472.49Q1840.59 469.94 1836.18 469.94Q1831.97 469.94 1829.08 472.39Q1826.19 474.84 1825.50 479.35Z M1896.16 456.51Q1901.94 456.51 1906.30 458.87Q1910.66 461.22 1913.02 465.04V457.30H1929.77V511.98H1913.02V504.24Q1910.57 508.06 1906.20 510.42Q1901.84 512.77 1896.06 512.77Q1889.40 512.77 1883.91 509.29Q1878.42 505.81 1875.24 499.39Q1872.05 492.97 1872.05 484.54Q1872.05 476.12 1875.24 469.75Q1878.42 463.38 1883.91 459.94Q1889.40 456.51 1896.16 456.51ZM1901.06 471.12Q1896.06 471.12 1892.58 474.69Q1889.10 478.27 1889.10 484.54Q1889.10 490.81 1892.58 494.49Q1896.06 498.17 1901.06 498.17Q1906.06 498.17 1909.54 494.54Q1913.02 490.91 1913.02 484.64Q1913.02 478.37 1909.54 474.74Q1906.06 471.12 1901.06 471.12Z M1978.77 456.71V474.45H1974.17Q1967.89 474.45 1964.76 477.14Q1961.62 479.84 1961.62 486.60V511.98H1944.87V457.30H1961.62V466.41Q1964.56 461.90 1968.97 459.31Q1973.38 456.71 1978.77 456.71Z M1986.81 494.05H2003.37Q2003.66 496.89 2006.02 498.65Q2008.37 500.42 2011.80 500.42Q2014.93 500.42 2016.65 499.19Q2018.37 497.97 2018.37 496.01Q2018.37 493.66 2015.91 492.53Q2013.46 491.40 2007.98 490.03Q2002.10 488.66 1998.18 487.14Q1994.26 485.62 1991.41 482.34Q1988.57 479.06 1988.57 473.47Q1988.57 468.76 1991.17 464.89Q1993.77 461.02 1998.81 458.77Q2003.86 456.51 2010.82 456.51Q2021.11 456.51 2027.04 461.61Q2032.97 466.71 2033.85 475.13H2018.37Q2017.97 472.29 2015.87 470.63Q2013.76 468.96 2010.33 468.96Q2007.39 468.96 2005.82 470.09Q2004.25 471.22 2004.25 473.18Q2004.25 475.53 2006.75 476.70Q2009.25 477.88 2014.54 479.06Q2020.62 480.62 2024.44 482.14Q2028.26 483.66 2031.15 487.04Q2034.05 490.42 2034.14 496.11Q2034.14 500.91 2031.45 504.68Q2028.75 508.45 2023.71 510.61Q2018.66 512.77 2011.99 512.77Q2004.84 512.77 1999.26 510.32Q1993.67 507.87 1990.43 503.60Q1987.20 499.34 1986.81 494.05Z" fill="#FFFFFF"/>
<path d="M1286.75 627.32Q1294.75 627.32 1300.45 631.54Q1306.14 635.77 1308.06 643.06H1296.03Q1294.69 640.25 1292.22 638.78Q1289.76 637.30 1286.62 637.30Q1281.57 637.30 1278.43 640.82Q1275.30 644.34 1275.30 650.23Q1275.30 656.12 1278.43 659.64Q1281.57 663.16 1286.62 663.16Q1289.76 663.16 1292.22 661.69Q1294.69 660.22 1296.03 657.40H1308.06Q1306.14 664.70 1300.45 668.89Q1294.75 673.08 1286.75 673.08Q1280.22 673.08 1275.07 670.17Q1269.92 667.26 1267.04 662.07Q1264.16 656.89 1264.16 650.23Q1264.16 643.58 1267.04 638.36Q1269.92 633.14 1275.07 630.23Q1280.22 627.32 1286.75 627.32Z M1354.27 664.82H1337.50L1334.82 672.76H1323.36L1339.62 627.83H1352.29L1368.54 672.76H1356.96ZM1351.46 656.38 1345.89 639.93 1340.38 656.38Z M1395.94 664.31H1410.27V672.76H1384.99V627.83H1395.94Z M1437.98 664.31H1452.32V672.76H1427.04V627.83H1437.98Z M1518.56 611.96 1501.41 684.73H1490.85L1508.00 611.96Z M1621.60 627.83 1609.89 672.76H1596.64L1589.47 643.19L1582.05 672.76H1568.80L1557.41 627.83H1569.12L1575.58 660.54L1583.58 627.83H1595.62L1603.30 660.54L1609.82 627.83Z M1677.54 627.83V672.76H1666.59V654.26H1649.57V672.76H1638.62V627.83H1649.57V645.43H1666.59V627.83Z M1724.90 664.82H1708.13L1705.44 672.76H1693.98L1710.24 627.83H1722.91L1739.17 672.76H1727.58ZM1722.08 656.38 1716.51 639.93 1711.01 656.38Z M1787.94 627.83V636.60H1776.03V672.76H1765.09V636.60H1753.18V627.83Z M1803.68 659.32H1815.33Q1815.58 661.82 1817.06 663.13Q1818.53 664.44 1820.90 664.44Q1823.33 664.44 1824.74 663.32Q1826.14 662.20 1826.14 660.22Q1826.14 658.55 1825.02 657.46Q1823.90 656.38 1822.27 655.67Q1820.64 654.97 1817.63 654.07Q1813.28 652.73 1810.53 651.38Q1807.78 650.04 1805.79 647.42Q1803.81 644.79 1803.81 640.57Q1803.81 634.30 1808.35 630.74Q1812.90 627.19 1820.19 627.19Q1827.62 627.19 1832.16 630.74Q1836.70 634.30 1837.02 640.63H1825.18Q1825.06 638.46 1823.58 637.21Q1822.11 635.96 1819.81 635.96Q1817.82 635.96 1816.61 637.02Q1815.39 638.07 1815.39 640.06Q1815.39 642.23 1817.44 643.45Q1819.49 644.66 1823.84 646.07Q1828.19 647.54 1830.91 648.89Q1833.63 650.23 1835.62 652.79Q1837.60 655.35 1837.60 659.38Q1837.60 663.22 1835.65 666.36Q1833.70 669.50 1829.98 671.35Q1826.27 673.21 1821.22 673.21Q1816.29 673.21 1812.38 671.61Q1808.48 670.01 1806.14 666.87Q1803.81 663.74 1803.68 659.32Z M1883.81 664.82H1867.04L1864.35 672.76H1852.90L1869.15 627.83H1881.82L1898.08 672.76H1886.50ZM1880.99 656.38 1875.42 639.93 1869.92 656.38Z M1932.26 656.63H1925.47V672.76H1914.53V627.83H1932.26Q1937.63 627.83 1941.34 629.69Q1945.06 631.54 1946.91 634.81Q1948.77 638.07 1948.77 642.30Q1948.77 646.20 1946.98 649.43Q1945.18 652.66 1941.47 654.65Q1937.76 656.63 1932.26 656.63ZM1937.63 642.30Q1937.63 639.61 1936.10 638.14Q1934.56 636.66 1931.42 636.66H1925.47V647.93H1931.42Q1934.56 647.93 1936.10 646.46Q1937.63 644.98 1937.63 642.30Z M1983.71 656.63H1976.93V672.76H1965.98V627.83H1983.71Q1989.09 627.83 1992.80 629.69Q1996.51 631.54 1998.37 634.81Q2000.22 638.07 2000.22 642.30Q2000.22 646.20 1998.43 649.43Q1996.64 652.66 1992.93 654.65Q1989.22 656.63 1983.71 656.63ZM1989.09 642.30Q1989.09 639.61 1987.55 638.14Q1986.02 636.66 1982.88 636.66H1976.93V647.93H1982.88Q1986.02 647.93 1987.55 646.46Q1989.09 644.98 1989.09 642.30Z" fill="#6B7280"/>
<g transform="translate(991.78,720.93) scale(5.6948)"><path d="M17.472 14.382c-.297-.149-1.758-.867-2.03-.967-.273-.099-.471-.148-.67.15-.197.297-.767.966-.94 1.164-.173.199-.347.223-.644.075-.297-.15-1.255-.463-2.39-1.475-.883-.788-1.48-1.761-1.653-2.059-.173-.297-.018-.458.13-.606.134-.133.298-.347.446-.52.149-.174.198-.298.298-.497.099-.198.05-.371-.025-.52-.075-.149-.669-1.612-.916-2.207-.242-.579-.487-.5-.669-.51-.173-.008-.371-.01-.57-.01-.198 0-.52.074-.792.372-.272.297-1.04 1.016-1.04 2.479 0 1.462 1.065 2.875 1.213 3.074.149.198 2.096 3.2 5.077 4.487.709.306 1.262.489 1.694.625.712.227 1.36.195 1.871.118.571-.085 1.758-.719 2.006-1.413.248-.694.248-1.289.173-1.413-.074-.124-.272-.198-.57-.347m-5.421 7.403h-.004a9.87 9.87 0 01-5.031-1.378l-.361-.214-3.741.982.998-3.648-.235-.374a9.86 9.86 0 01-1.51-5.26c.001-5.45 4.436-9.884 9.888-9.884 2.64 0 5.122 1.03 6.988 2.898a9.825 9.825 0 012.893 6.994c-.003 5.45-4.437 9.884-9.885 9.884m8.413-18.297A11.815 11.815 0 0012.05 0C5.495 0 .16 5.335.157 11.892c0 2.096.547 4.142 1.588 5.945L.057 24l6.305-1.654a11.882 11.882 0 005.683 1.448h.005c6.554 0 11.89-5.335 11.893-11.893a11.821 11.821 0 00-3.48-8.413z" fill="#4DAA57"/></g><path d="M1248.79 806.73H1224.87V831.39H1196.94V806.73H1172.87V780.43H1196.94V755.62H1224.87V780.43H1248.79Z M1301.53 822.03Q1308.21 822.03 1310.66 815.72Q1313.12 809.40 1313.12 795.44Q1310.14 799.75 1304.80 802.27Q1299.45 804.80 1292.76 804.80Q1278.50 804.80 1269.59 795.88Q1260.67 786.97 1260.67 770.18Q1260.67 759.19 1265.28 750.94Q1269.88 742.70 1278.43 738.24Q1286.97 733.79 1298.41 733.79Q1321.14 733.79 1330.13 747.53Q1339.11 761.27 1339.11 787.42Q1339.11 816.68 1330.42 831.09Q1321.73 845.50 1300.64 845.50Q1289.20 845.50 1280.95 840.82Q1272.71 836.14 1268.32 828.49Q1263.94 820.84 1263.35 811.93H1290.53Q1292.32 822.03 1301.53 822.03ZM1310.89 770.93Q1310.89 764.98 1307.84 762.01Q1304.80 759.04 1299.45 759.04Q1294.10 759.04 1291.05 762.09Q1288.01 765.13 1288.01 770.78Q1288.01 775.98 1291.05 779.10Q1294.10 782.22 1299.74 782.22Q1304.94 782.22 1307.92 779.17Q1310.89 776.13 1310.89 770.93Z M1347.28 763.50V736.16H1393.04V844.76H1362.59V763.50Z M1477.42 822.03Q1484.11 822.03 1486.56 815.72Q1489.01 809.40 1489.01 795.44Q1486.04 799.75 1480.69 802.27Q1475.34 804.80 1468.66 804.80Q1454.40 804.80 1445.48 795.88Q1436.57 786.97 1436.57 770.18Q1436.57 759.19 1441.17 750.94Q1445.78 742.70 1454.32 738.24Q1462.86 733.79 1474.30 733.79Q1497.03 733.79 1506.02 747.53Q1515.01 761.27 1515.01 787.42Q1515.01 816.68 1506.32 831.09Q1497.63 845.50 1476.53 845.50Q1465.09 845.50 1456.85 840.82Q1448.60 836.14 1444.22 828.49Q1439.84 820.84 1439.24 811.93H1466.43Q1468.21 822.03 1477.42 822.03ZM1486.78 770.93Q1486.78 764.98 1483.74 762.01Q1480.69 759.04 1475.34 759.04Q1470.00 759.04 1466.95 762.09Q1463.90 765.13 1463.90 770.78Q1463.90 775.98 1466.95 779.10Q1470.00 782.22 1475.64 782.22Q1480.84 782.22 1483.81 779.17Q1486.78 776.13 1486.78 770.93Z M1523.18 763.50V736.16H1568.94V844.76H1538.48V763.50Z M1628.21 768.55Q1628.21 763.79 1626.06 761.12Q1623.90 758.45 1619.74 758.45Q1615.44 758.45 1613.06 762.09Q1610.68 765.73 1610.83 772.71H1582.60Q1583.05 759.49 1588.40 750.80Q1593.75 742.10 1602.36 738.02Q1610.98 733.93 1621.53 733.93Q1639.80 733.93 1648.71 743.00Q1657.63 752.06 1657.63 766.47Q1657.63 781.92 1647.30 795.44Q1636.98 808.96 1621.53 819.65H1658.67V843.27H1582.90V821.44Q1597.31 810.15 1606.52 801.97Q1615.73 793.80 1621.97 785.11Q1628.21 776.42 1628.21 768.55Z M1672.63 763.05Q1672.63 755.03 1676.87 748.42Q1681.10 741.81 1689.72 737.87Q1698.33 733.93 1710.96 733.93Q1723.59 733.93 1732.20 737.87Q1740.82 741.81 1745.05 748.42Q1749.29 755.03 1749.29 763.05Q1749.29 770.93 1745.80 776.65Q1742.31 782.36 1736.07 785.78Q1743.79 789.79 1747.80 796.48Q1751.81 803.16 1751.81 812.23Q1751.81 823.07 1746.32 830.87Q1740.82 838.67 1731.54 842.68Q1722.25 846.69 1710.96 846.69Q1699.67 846.69 1690.38 842.68Q1681.10 838.67 1675.60 830.87Q1670.11 823.07 1670.11 812.23Q1670.11 803.16 1674.12 796.48Q1678.13 789.79 1685.85 785.78Q1672.63 778.50 1672.63 763.05ZM1710.96 756.66Q1706.65 756.66 1703.90 759.63Q1701.15 762.61 1701.15 767.66Q1701.15 772.71 1703.90 775.53Q1706.65 778.35 1710.96 778.35Q1715.27 778.35 1718.02 775.53Q1720.76 772.71 1720.76 767.66Q1720.76 762.46 1718.09 759.56Q1715.42 756.66 1710.96 756.66ZM1698.33 810.59Q1698.33 815.94 1701.75 819.36Q1705.17 822.77 1710.96 822.77Q1716.75 822.77 1720.10 819.36Q1723.44 815.94 1723.44 810.59Q1723.44 804.95 1720.02 801.60Q1716.61 798.26 1710.96 798.26Q1705.31 798.26 1701.82 801.60Q1698.33 804.95 1698.33 810.59Z M1834.86 757.85 1799.20 844.76H1769.34L1805.30 761.27H1762.96V736.31H1834.86Z M1912.56 822.03Q1919.24 822.03 1921.69 815.72Q1924.14 809.40 1924.14 795.44Q1921.17 799.75 1915.82 802.27Q1910.48 804.80 1903.79 804.80Q1889.53 804.80 1880.62 795.88Q1871.70 786.97 1871.70 770.18Q1871.70 759.19 1876.31 750.94Q1880.91 742.70 1889.45 738.24Q1898.00 733.79 1909.44 733.79Q1932.17 733.79 1941.15 747.53Q1950.14 761.27 1950.14 787.42Q1950.14 816.68 1941.45 831.09Q1932.76 845.50 1911.66 845.50Q1900.23 845.50 1891.98 840.82Q1883.74 836.14 1879.35 828.49Q1874.97 820.84 1874.38 811.93H1901.56Q1903.35 822.03 1912.56 822.03ZM1921.92 770.93Q1921.92 764.98 1918.87 762.01Q1915.82 759.04 1910.48 759.04Q1905.13 759.04 1902.08 762.09Q1899.04 765.13 1899.04 770.78Q1899.04 775.98 1902.08 779.10Q1905.13 782.22 1910.77 782.22Q1915.97 782.22 1918.94 779.17Q1921.92 776.13 1921.92 770.93Z M1958.31 763.50V736.16H2004.07V844.76H1973.61V763.50Z M2063.34 768.55Q2063.34 763.79 2061.19 761.12Q2059.04 758.45 2054.88 758.45Q2050.57 758.45 2048.19 762.09Q2045.81 765.73 2045.96 772.71H2017.74Q2018.18 759.49 2023.53 750.80Q2028.88 742.10 2037.50 738.02Q2046.11 733.93 2056.66 733.93Q2074.93 733.93 2083.85 743.00Q2092.76 752.06 2092.76 766.47Q2092.76 781.92 2082.43 795.44Q2072.11 808.96 2056.66 819.65H2093.80V843.27H2018.03V821.44Q2032.44 810.15 2041.66 801.97Q2050.87 793.80 2057.11 785.11Q2063.34 776.42 2063.34 768.55Z M2144.61 822.03Q2151.29 822.03 2153.74 815.72Q2156.19 809.40 2156.19 795.44Q2153.22 799.75 2147.88 802.27Q2142.53 804.80 2135.84 804.80Q2121.58 804.80 2112.67 795.88Q2103.75 786.97 2103.75 770.18Q2103.75 759.19 2108.36 750.94Q2112.96 742.70 2121.51 738.24Q2130.05 733.79 2141.49 733.79Q2164.22 733.79 2173.21 747.53Q2182.19 761.27 2182.19 787.42Q2182.19 816.68 2173.50 831.09Q2164.81 845.50 2143.72 845.50Q2132.28 845.50 2124.03 840.82Q2115.79 836.14 2111.40 828.49Q2107.02 820.84 2106.43 811.93H2133.61Q2135.40 822.03 2144.61 822.03ZM2153.97 770.93Q2153.97 764.98 2150.92 762.01Q2147.88 759.04 2142.53 759.04Q2137.18 759.04 2134.13 762.09Q2131.09 765.13 2131.09 770.78Q2131.09 775.98 2134.13 779.10Q2137.18 782.22 2142.82 782.22Q2148.02 782.22 2151.00 779.17Q2153.97 776.13 2153.97 770.93Z M2237.90 768.55Q2237.90 763.79 2235.75 761.12Q2233.59 758.45 2229.44 758.45Q2225.13 758.45 2222.75 762.09Q2220.37 765.73 2220.52 772.71H2192.30Q2192.74 759.49 2198.09 750.80Q2203.44 742.10 2212.05 738.02Q2220.67 733.93 2231.22 733.93Q2249.49 733.93 2258.40 743.00Q2267.32 752.06 2267.32 766.47Q2267.32 781.92 2256.99 795.44Q2246.67 808.96 2231.22 819.65H2268.36V843.27H2192.59V821.44Q2207.00 810.15 2216.21 801.97Q2225.42 793.80 2231.66 785.11Q2237.90 776.42 2237.90 768.55Z" fill="#2D3436"/>
<rect x="1048.92" y="912.76" width="1166.16" height="5" rx="2.5" fill="#DFF3E3"/>
<g transform="translate(973.58,952.89) scale(2.8222)"><path d="M12 2a10 10 0 1 0 0 20 10 10 0 0 0 0-20zm6.9 6h-2.9a15.6 15.6 0 0 0-1.4-3.6A8 8 0 0 1 18.9 8zM12 4.1c.7 1 1.3 2.3 1.7 3.9h-3.4c.4-1.6 1-2.9 1.7-3.9zM4.3 14a8 8 0 0 1 0-4h3.3a17.6 17.6 0 0 0 0 4H4.3zm.8 2h2.9c.3 1.3.8 2.5 1.4 3.6A8 8 0 0 1 5.1 16zm2.9-8H5.1a8 8 0 0 1 4.3-3.6A15.6 15.6 0 0 0 8 8zM12 19.9c-.7-1-1.3-2.3-1.7-3.9h3.4c-.4 1.6-1 2.9-1.7 3.9zM14.1 14H9.9a15.7 15.7 0 0 1 0-4h4.2a15.7 15.7 0 0 1 0 4zm.5 5.6c.6-1.1 1.1-2.3 1.4-3.6h2.9a8 8 0 0 1-4.3 3.6zm1.8-5.6a17.6 17.6 0 0 0 0-4h3.3a8 8 0 0 1 0 4h-3.3z" fill="#4DAA57"/></g>
<path d="M1158.22 969.67 1146.79 1008.76H1136.14L1129.01 981.46L1121.89 1008.76H1111.16L1099.66 969.67H1109.68L1116.60 999.45L1124.07 969.67H1134.52L1141.85 999.38L1148.77 969.67Z M1217.77 969.67 1206.34 1008.76H1195.69L1188.56 981.46L1181.44 1008.76H1170.71L1159.21 969.67H1169.23L1176.14 999.45L1183.62 969.67H1194.07L1201.40 999.38L1208.32 969.67Z M1277.32 969.67 1265.89 1008.76H1255.24L1248.11 981.46L1240.98 1008.76H1230.26L1218.76 969.67H1228.78L1235.69 999.45L1243.17 969.67H1253.61L1260.95 999.38L1267.87 969.67Z M1280.92 1003.47Q1280.92 1001.00 1282.65 999.34Q1284.38 997.68 1287.06 997.68Q1289.67 997.68 1291.36 999.34Q1293.05 1001.00 1293.05 1003.47Q1293.05 1005.94 1291.36 1007.60Q1289.67 1009.25 1287.06 1009.25Q1284.38 1009.25 1282.65 1007.60Q1280.92 1005.94 1280.92 1003.47Z M1316.34 969.04Q1320.71 969.04 1323.99 970.80Q1327.27 972.57 1329.25 975.25V969.67H1339.20V1008.76H1329.25V1003.05Q1327.34 1005.80 1323.99 1007.60Q1320.64 1009.39 1316.27 1009.39Q1311.33 1009.39 1307.27 1006.86Q1303.21 1004.32 1300.85 999.69Q1298.49 995.07 1298.49 989.08Q1298.49 983.15 1300.85 978.56Q1303.21 973.98 1307.27 971.51Q1311.33 969.04 1316.34 969.04ZM1318.88 977.72Q1316.13 977.72 1313.80 979.06Q1311.47 980.40 1310.02 982.97Q1308.58 985.55 1308.58 989.08Q1308.58 992.60 1310.02 995.25Q1311.47 997.89 1313.83 999.31Q1316.20 1000.72 1318.88 1000.72Q1321.63 1000.72 1324.03 999.34Q1326.43 997.97 1327.84 995.39Q1329.25 992.81 1329.25 989.22Q1329.25 985.62 1327.84 983.04Q1326.43 980.47 1324.03 979.09Q1321.63 977.72 1318.88 977.72Z M1370.73 969.11V979.48H1368.12Q1363.47 979.48 1361.10 981.67Q1358.74 983.85 1358.74 989.29V1008.76H1348.86V969.67H1358.74V975.74Q1360.65 972.64 1363.71 970.87Q1366.78 969.11 1370.73 969.11Z M1414.76 969.67 1390.56 1027.25H1380.05L1388.51 1007.77L1372.85 969.67H1383.93L1394.02 996.98L1404.25 969.67Z M1435.36 969.04Q1439.74 969.04 1443.02 970.80Q1446.30 972.57 1448.27 975.25V969.67H1458.22V1008.76H1448.27V1003.05Q1446.37 1005.80 1443.02 1007.60Q1439.67 1009.39 1435.29 1009.39Q1430.35 1009.39 1426.30 1006.86Q1422.24 1004.32 1419.88 999.69Q1417.51 995.07 1417.51 989.08Q1417.51 983.15 1419.88 978.56Q1422.24 973.98 1426.30 971.51Q1430.35 969.04 1435.36 969.04ZM1437.90 977.72Q1435.15 977.72 1432.82 979.06Q1430.49 980.40 1429.05 982.97Q1427.60 985.55 1427.60 989.08Q1427.60 992.60 1429.05 995.25Q1430.49 997.89 1432.86 999.31Q1435.22 1000.72 1437.90 1000.72Q1440.65 1000.72 1443.05 999.34Q1445.45 997.97 1446.86 995.39Q1448.27 992.81 1448.27 989.22Q1448.27 985.62 1446.86 983.04Q1445.45 980.47 1443.05 979.09Q1440.65 977.72 1437.90 977.72Z M1484.19 999.66 1494.06 969.67H1504.58L1490.11 1008.76H1478.12L1463.73 969.67H1474.31Z M1509.09 959.23Q1509.09 956.76 1510.82 955.10Q1512.55 953.44 1515.16 953.44Q1517.77 953.44 1519.50 955.10Q1521.23 956.76 1521.23 959.23Q1521.23 961.70 1519.50 963.36Q1517.77 965.02 1515.16 965.02Q1512.55 965.02 1510.82 963.36Q1509.09 961.70 1509.09 959.23ZM1520.03 969.67V1008.76H1510.15V969.67Z M1545.15 969.04Q1548.96 969.04 1552.41 970.70Q1555.87 972.35 1557.92 975.11V956.55H1567.94V1008.76H1557.92V1002.97Q1556.08 1005.87 1552.77 1007.63Q1549.45 1009.39 1545.08 1009.39Q1540.14 1009.39 1536.05 1006.86Q1531.95 1004.32 1529.59 999.69Q1527.23 995.07 1527.23 989.08Q1527.23 983.15 1529.59 978.56Q1531.95 973.98 1536.05 971.51Q1540.14 969.04 1545.15 969.04ZM1547.62 977.72Q1544.86 977.72 1542.54 979.06Q1540.21 980.40 1538.76 982.97Q1537.32 985.55 1537.32 989.08Q1537.32 992.60 1538.76 995.25Q1540.21 997.89 1542.57 999.31Q1544.94 1000.72 1547.62 1000.72Q1550.37 1000.72 1552.77 999.34Q1555.17 997.97 1556.58 995.39Q1557.99 992.81 1557.99 989.22Q1557.99 985.62 1556.58 983.04Q1555.17 980.47 1552.77 979.09Q1550.37 977.72 1547.62 977.72Z M1615.00 969.67 1590.80 1027.25H1580.28L1588.75 1007.77L1573.09 969.67H1584.16L1594.25 996.98L1604.48 969.67Z M1635.60 969.04Q1639.97 969.04 1643.25 970.80Q1646.53 972.57 1648.51 975.25V969.67H1658.46V1008.76H1648.51V1003.05Q1646.60 1005.80 1643.25 1007.60Q1639.90 1009.39 1635.53 1009.39Q1630.59 1009.39 1626.53 1006.86Q1622.48 1004.32 1620.11 999.69Q1617.75 995.07 1617.75 989.08Q1617.75 983.15 1620.11 978.56Q1622.48 973.98 1626.53 971.51Q1630.59 969.04 1635.60 969.04ZM1638.14 977.72Q1635.39 977.72 1633.06 979.06Q1630.73 980.40 1629.28 982.97Q1627.84 985.55 1627.84 989.08Q1627.84 992.60 1629.28 995.25Q1630.73 997.89 1633.09 999.31Q1635.46 1000.72 1638.14 1000.72Q1640.89 1000.72 1643.29 999.34Q1645.69 997.97 1647.10 995.39Q1648.51 992.81 1648.51 989.22Q1648.51 985.62 1647.10 983.04Q1645.69 980.47 1643.29 979.09Q1640.89 977.72 1638.14 977.72Z M1690.91 969.04Q1695.92 969.04 1699.98 971.51Q1704.04 973.98 1706.40 978.53Q1708.76 983.08 1708.76 989.08Q1708.76 995.07 1706.40 999.69Q1704.04 1004.32 1699.98 1006.86Q1695.92 1009.39 1690.91 1009.39Q1686.61 1009.39 1683.33 1007.63Q1680.05 1005.87 1678.00 1003.19V1027.39H1668.12V969.67H1678.00V975.32Q1679.91 972.64 1683.26 970.84Q1686.61 969.04 1690.91 969.04ZM1688.30 977.72Q1685.62 977.72 1683.26 979.09Q1680.89 980.47 1679.45 983.08Q1678.00 985.69 1678.00 989.22Q1678.00 992.74 1679.45 995.35Q1680.89 997.97 1683.26 999.34Q1685.62 1000.72 1688.30 1000.72Q1691.05 1000.72 1693.42 999.31Q1695.78 997.89 1697.23 995.28Q1698.67 992.67 1698.67 989.08Q1698.67 985.55 1697.23 982.97Q1695.78 980.40 1693.42 979.06Q1691.05 977.72 1688.30 977.72Z M1725.84 956.55V1008.76H1715.96V956.55Z M1750.89 969.04Q1755.26 969.04 1758.54 970.80Q1761.82 972.57 1763.80 975.25V969.67H1773.75V1008.76H1763.80V1003.05Q1761.89 1005.80 1758.54 1007.60Q1755.19 1009.39 1750.81 1009.39Q1745.88 1009.39 1741.82 1006.86Q1737.76 1004.32 1735.40 999.69Q1733.03 995.07 1733.03 989.08Q1733.03 983.15 1735.40 978.56Q1737.76 973.98 1741.82 971.51Q1745.88 969.04 1750.89 969.04ZM1753.43 977.72Q1750.67 977.72 1748.35 979.06Q1746.02 980.40 1744.57 982.97Q1743.12 985.55 1743.12 989.08Q1743.12 992.60 1744.57 995.25Q1746.02 997.89 1748.38 999.31Q1750.74 1000.72 1753.43 1000.72Q1756.18 1000.72 1758.58 999.34Q1760.97 997.97 1762.39 995.39Q1763.80 992.81 1763.80 989.22Q1763.80 985.62 1762.39 983.04Q1760.97 980.47 1758.58 979.09Q1756.18 977.72 1753.43 977.72Z M1820.81 969.67 1796.60 1027.25H1786.09L1794.56 1007.77L1778.90 969.67H1789.97L1800.06 996.98L1810.29 969.67Z M1823.98 996.41H1833.93Q1834.21 998.67 1836.15 1000.15Q1838.09 1001.63 1840.98 1001.63Q1843.81 1001.63 1845.39 1000.51Q1846.98 999.38 1846.98 997.61Q1846.98 995.71 1845.04 994.75Q1843.10 993.80 1838.87 992.67Q1834.49 991.62 1831.71 990.49Q1828.92 989.36 1826.91 987.03Q1824.90 984.70 1824.90 980.75Q1824.90 977.50 1826.77 974.82Q1828.64 972.14 1832.13 970.59Q1835.62 969.04 1840.35 969.04Q1847.33 969.04 1851.50 972.53Q1855.66 976.02 1856.08 981.95H1846.63Q1846.42 979.62 1844.69 978.24Q1842.96 976.87 1840.07 976.87Q1837.39 976.87 1835.94 977.86Q1834.49 978.84 1834.49 980.61Q1834.49 982.58 1836.47 983.61Q1838.44 984.63 1842.61 985.69Q1846.84 986.75 1849.59 987.88Q1852.34 989.00 1854.35 991.37Q1856.36 993.73 1856.44 997.61Q1856.44 1001.00 1854.57 1003.68Q1852.70 1006.36 1849.20 1007.88Q1845.71 1009.39 1841.05 1009.39Q1836.26 1009.39 1832.45 1007.67Q1828.64 1005.94 1826.41 1002.97Q1824.19 1000.01 1823.98 996.41Z M1881.34 969.04Q1888.61 969.04 1893.37 972.67Q1898.13 976.30 1899.76 982.87H1889.10Q1888.26 980.33 1886.24 978.88Q1884.23 977.43 1881.27 977.43Q1877.04 977.43 1874.57 980.50Q1872.10 983.57 1872.10 989.22Q1872.10 994.79 1874.57 997.86Q1877.04 1000.93 1881.27 1000.93Q1887.27 1000.93 1889.10 995.57H1899.76Q1898.13 1001.92 1893.34 1005.66Q1888.54 1009.39 1881.34 1009.39Q1875.70 1009.39 1871.32 1006.89Q1866.95 1004.39 1864.48 999.83Q1862.01 995.28 1862.01 989.22Q1862.01 983.15 1864.48 978.60Q1866.95 974.05 1871.32 971.54Q1875.70 969.04 1881.34 969.04Z M1944.28 985.83V1008.76H1934.40V987.17Q1934.40 982.51 1932.07 980.01Q1929.74 977.50 1925.72 977.50Q1921.63 977.50 1919.26 980.01Q1916.90 982.51 1916.90 987.17V1008.76H1907.02V956.55H1916.90V974.54Q1918.81 972.00 1921.98 970.55Q1925.16 969.11 1929.04 969.11Q1933.48 969.11 1936.94 971.05Q1940.40 972.99 1942.34 976.76Q1944.28 980.54 1944.28 985.83Z M1951.19 989.22Q1951.19 983.22 1953.84 978.63Q1956.48 974.05 1961.07 971.54Q1965.65 969.04 1971.30 969.04Q1976.94 969.04 1981.53 971.54Q1986.12 974.05 1988.76 978.63Q1991.41 983.22 1991.41 989.22Q1991.41 995.21 1988.69 999.80Q1985.97 1004.39 1981.35 1006.89Q1976.73 1009.39 1971.02 1009.39Q1965.37 1009.39 1960.86 1006.89Q1956.34 1004.39 1953.77 999.80Q1951.19 995.21 1951.19 989.22ZM1981.25 989.22Q1981.25 983.64 1978.32 980.64Q1975.39 977.65 1971.16 977.65Q1966.92 977.65 1964.07 980.64Q1961.21 983.64 1961.21 989.22Q1961.21 994.79 1964.00 997.79Q1966.78 1000.79 1971.02 1000.79Q1973.70 1000.79 1976.06 999.48Q1978.43 998.18 1979.84 995.57Q1981.25 992.96 1981.25 989.22Z M1996.20 989.22Q1996.20 983.22 1998.85 978.63Q2001.50 974.05 2006.08 971.54Q2010.67 969.04 2016.31 969.04Q2021.96 969.04 2026.54 971.54Q2031.13 974.05 2033.78 978.63Q2036.42 983.22 2036.42 989.22Q2036.42 995.21 2033.70 999.80Q2030.99 1004.39 2026.37 1006.89Q2021.75 1009.39 2016.03 1009.39Q2010.39 1009.39 2005.87 1006.89Q2001.36 1004.39 1998.78 999.80Q1996.20 995.21 1996.20 989.22ZM2026.26 989.22Q2026.26 983.64 2023.33 980.64Q2020.41 977.65 2016.17 977.65Q2011.94 977.65 2009.08 980.64Q2006.22 983.64 2006.22 989.22Q2006.22 994.79 2009.01 997.79Q2011.80 1000.79 2016.03 1000.79Q2018.71 1000.79 2021.08 999.48Q2023.44 998.18 2024.85 995.57Q2026.26 992.96 2026.26 989.22Z M2053.57 956.55V1008.76H2043.69V956.55Z M2061.54 1003.47Q2061.54 1001.00 2063.27 999.34Q2065.00 997.68 2067.68 997.68Q2070.29 997.68 2071.98 999.34Q2073.67 1001.00 2073.67 1003.47Q2073.67 1005.94 2071.98 1007.60Q2070.29 1009.25 2067.68 1009.25Q2065.00 1009.25 2063.27 1007.60Q2061.54 1005.94 2061.54 1003.47Z M2098.44 969.04Q2105.71 969.04 2110.47 972.67Q2115.23 976.30 2116.85 982.87H2106.20Q2105.35 980.33 2103.34 978.88Q2101.33 977.43 2098.37 977.43Q2094.14 977.43 2091.67 980.50Q2089.20 983.57 2089.20 989.22Q2089.20 994.79 2091.67 997.86Q2094.14 1000.93 2098.37 1000.93Q2104.37 1000.93 2106.20 995.57H2116.85Q2115.23 1001.92 2110.43 1005.66Q2105.64 1009.39 2098.44 1009.39Q2092.79 1009.39 2088.42 1006.89Q2084.05 1004.39 2081.58 999.83Q2079.11 995.28 2079.11 989.22Q2079.11 983.15 2081.58 978.60Q2084.05 974.05 2088.42 971.54Q2092.79 969.04 2098.44 969.04Z M2121.65 989.22Q2121.65 983.22 2124.30 978.63Q2126.94 974.05 2131.53 971.54Q2136.12 969.04 2141.76 969.04Q2147.40 969.04 2151.99 971.54Q2156.58 974.05 2159.22 978.63Q2161.87 983.22 2161.87 989.22Q2161.87 995.21 2159.15 999.80Q2156.44 1004.39 2151.81 1006.89Q2147.19 1009.39 2141.48 1009.39Q2135.83 1009.39 2131.32 1006.89Q2126.80 1004.39 2124.23 999.80Q2121.65 995.21 2121.65 989.22ZM2151.71 989.22Q2151.71 983.64 2148.78 980.64Q2145.85 977.65 2141.62 977.65Q2137.39 977.65 2134.53 980.64Q2131.67 983.64 2131.67 989.22Q2131.67 994.79 2134.46 997.79Q2137.24 1000.79 2141.48 1000.79Q2144.16 1000.79 2146.52 999.48Q2148.89 998.18 2150.30 995.57Q2151.71 992.96 2151.71 989.22Z M2233.69 985.83V1008.76H2223.82V987.17Q2223.82 982.58 2221.49 980.15Q2219.16 977.72 2215.14 977.72Q2211.12 977.72 2208.75 980.15Q2206.39 982.58 2206.39 987.17V1008.76H2196.51V987.17Q2196.51 982.58 2194.18 980.15Q2191.85 977.72 2187.83 977.72Q2183.74 977.72 2181.38 980.15Q2179.01 982.58 2179.01 987.17V1008.76H2169.14V969.67H2179.01V974.40Q2180.92 971.93 2183.92 970.52Q2186.92 969.11 2190.51 969.11Q2195.10 969.11 2198.70 971.05Q2202.30 972.99 2204.27 976.59Q2206.18 973.20 2209.81 971.15Q2213.44 969.11 2217.68 969.11Q2224.87 969.11 2229.28 973.52Q2233.69 977.93 2233.69 985.83Z" fill="#4DAA57"/>
<g transform="translate(1021.82,1048.80) scale(1.8298)"><path d="M12 2c-3.9 0-7 3.1-7 7 0 5.2 7 13 7 13s7-7.8 7-13c0-3.9-3.1-7-7-7zm0 9.5A2.5 2.5 0 1 1 12 6.5a2.5 2.5 0 0 1 0 5z" fill="#6B7280"/></g>
<path d="M1124.71 1090.76H1119.60L1104.23 1067.50V1090.76H1099.12V1059.57H1104.23L1119.60 1082.78V1059.57H1124.71Z M1153.88 1080.32H1135.01Q1135.24 1083.28 1137.21 1085.07Q1139.18 1086.86 1142.05 1086.86Q1146.17 1086.86 1147.87 1083.41H1153.39Q1152.27 1086.82 1149.33 1088.99Q1146.39 1091.16 1142.05 1091.16Q1138.51 1091.16 1135.71 1089.57Q1132.91 1087.98 1131.32 1085.09Q1129.72 1082.20 1129.72 1078.39Q1129.72 1074.58 1131.27 1071.69Q1132.82 1068.80 1135.62 1067.23Q1138.42 1065.67 1142.05 1065.67Q1145.54 1065.67 1148.28 1067.19Q1151.01 1068.71 1152.53 1071.47Q1154.06 1074.22 1154.06 1077.81Q1154.06 1079.20 1153.88 1080.32ZM1148.73 1076.20Q1148.68 1073.37 1146.71 1071.67Q1144.74 1069.97 1141.82 1069.97Q1139.18 1069.97 1137.30 1071.65Q1135.42 1073.33 1135.06 1076.20Z M1169.02 1065.67Q1171.94 1065.67 1174.11 1066.81Q1176.28 1067.95 1177.58 1069.65V1066.07H1182.74V1090.76H1177.58V1087.09Q1176.28 1088.83 1174.04 1090.00Q1171.80 1091.16 1168.94 1091.16Q1165.75 1091.16 1163.11 1089.53Q1160.47 1087.89 1158.92 1084.96Q1157.37 1082.02 1157.37 1078.30Q1157.37 1074.58 1158.92 1071.71Q1160.47 1068.85 1163.13 1067.26Q1165.80 1065.67 1169.02 1065.67ZM1170.10 1070.10Q1168.13 1070.10 1166.43 1071.07Q1164.72 1072.03 1163.67 1073.89Q1162.62 1075.75 1162.62 1078.30Q1162.62 1080.86 1163.67 1082.78Q1164.72 1084.71 1166.45 1085.72Q1168.17 1086.73 1170.10 1086.73Q1172.07 1086.73 1173.77 1085.74Q1175.48 1084.76 1176.53 1082.85Q1177.58 1080.95 1177.58 1078.39Q1177.58 1075.84 1176.53 1073.96Q1175.48 1072.07 1173.77 1071.09Q1172.07 1070.10 1170.10 1070.10Z M1201.96 1065.67V1070.95H1200.66Q1197.66 1070.95 1196.11 1072.48Q1194.57 1074.00 1194.57 1077.76V1090.76H1189.46V1066.07H1194.57V1069.65Q1195.69 1067.77 1197.55 1066.72Q1199.41 1065.67 1201.96 1065.67Z M1229.07 1078.12H1223.43V1090.76H1218.32V1059.62H1229.07Q1232.66 1059.62 1235.14 1060.85Q1237.63 1062.08 1238.86 1064.19Q1240.10 1066.29 1240.10 1068.89Q1240.10 1071.27 1238.98 1073.37Q1237.86 1075.48 1235.39 1076.80Q1232.93 1078.12 1229.07 1078.12ZM1234.85 1068.89Q1234.85 1063.78 1229.07 1063.78H1223.43V1073.96H1229.07Q1231.99 1073.96 1233.42 1072.63Q1234.85 1071.31 1234.85 1068.89Z M1243.32 1078.39Q1243.32 1074.63 1244.98 1071.71Q1246.64 1068.80 1249.51 1067.23Q1252.38 1065.67 1255.92 1065.67Q1259.46 1065.67 1262.32 1067.23Q1265.19 1068.80 1266.85 1071.71Q1268.51 1074.63 1268.51 1078.39Q1268.51 1082.16 1266.80 1085.07Q1265.10 1087.98 1262.17 1089.57Q1259.23 1091.16 1255.69 1091.16Q1252.20 1091.16 1249.37 1089.57Q1246.55 1087.98 1244.94 1085.09Q1243.32 1082.20 1243.32 1078.39ZM1263.26 1078.39Q1263.26 1075.70 1262.23 1073.84Q1261.20 1071.98 1259.50 1071.04Q1257.80 1070.10 1255.83 1070.10Q1253.85 1070.10 1252.17 1071.04Q1250.49 1071.98 1249.51 1073.84Q1248.52 1075.70 1248.52 1078.39Q1248.52 1082.38 1250.56 1084.55Q1252.60 1086.73 1255.69 1086.73Q1257.66 1086.73 1259.39 1085.79Q1261.11 1084.84 1262.19 1082.96Q1263.26 1081.08 1263.26 1078.39Z M1306.73 1066.07 1299.07 1090.76H1293.69L1288.72 1072.52L1283.74 1090.76H1278.37L1270.66 1066.07H1275.86L1281.01 1085.92L1286.25 1066.07H1291.59L1296.60 1085.83L1301.71 1066.07Z M1332.99 1080.32H1314.13Q1314.35 1083.28 1316.32 1085.07Q1318.29 1086.86 1321.16 1086.86Q1325.28 1086.86 1326.99 1083.41H1332.50Q1331.38 1086.82 1328.44 1088.99Q1325.51 1091.16 1321.16 1091.16Q1317.62 1091.16 1314.82 1089.57Q1312.02 1087.98 1310.43 1085.09Q1308.84 1082.20 1308.84 1078.39Q1308.84 1074.58 1310.38 1071.69Q1311.93 1068.80 1314.73 1067.23Q1317.53 1065.67 1321.16 1065.67Q1324.66 1065.67 1327.39 1067.19Q1330.12 1068.71 1331.65 1071.47Q1333.17 1074.22 1333.17 1077.81Q1333.17 1079.20 1332.99 1080.32ZM1327.84 1076.20Q1327.79 1073.37 1325.82 1071.67Q1323.85 1069.97 1320.94 1069.97Q1318.29 1069.97 1316.41 1071.65Q1314.53 1073.33 1314.17 1076.20Z M1350.69 1065.67V1070.95H1349.39Q1346.39 1070.95 1344.84 1072.48Q1343.30 1074.00 1343.30 1077.76V1090.76H1338.19V1066.07H1343.30V1069.65Q1344.42 1067.77 1346.28 1066.72Q1348.14 1065.67 1350.69 1065.67Z M1366.29 1082.16H1371.75Q1371.93 1084.17 1373.35 1085.47Q1374.76 1086.77 1377.31 1086.77Q1379.95 1086.77 1381.43 1085.49Q1382.91 1084.22 1382.91 1082.20Q1382.91 1080.63 1381.99 1079.65Q1381.08 1078.66 1379.71 1078.12Q1378.34 1077.59 1375.92 1076.96Q1372.87 1076.15 1370.97 1075.32Q1369.07 1074.49 1367.72 1072.75Q1366.38 1071.00 1366.38 1068.09Q1366.38 1065.40 1367.72 1063.38Q1369.07 1061.36 1371.49 1060.29Q1373.91 1059.21 1377.09 1059.21Q1381.61 1059.21 1384.50 1061.48Q1387.39 1063.74 1387.71 1067.68H1382.06Q1381.93 1065.98 1380.45 1064.77Q1378.97 1063.56 1376.55 1063.56Q1374.35 1063.56 1372.96 1064.68Q1371.58 1065.80 1371.58 1067.91Q1371.58 1069.34 1372.45 1070.26Q1373.32 1071.18 1374.67 1071.71Q1376.01 1072.25 1378.34 1072.88Q1381.43 1073.73 1383.38 1074.58Q1385.33 1075.43 1386.70 1077.20Q1388.07 1078.97 1388.07 1081.93Q1388.07 1084.31 1386.79 1086.41Q1385.51 1088.52 1383.07 1089.80Q1380.63 1091.07 1377.31 1091.07Q1374.17 1091.07 1371.66 1089.98Q1369.16 1088.88 1367.72 1086.86Q1366.29 1084.84 1366.29 1082.16Z M1416.48 1066.07V1090.76H1411.37V1087.85Q1410.16 1089.37 1408.21 1090.24Q1406.26 1091.12 1404.06 1091.12Q1401.15 1091.12 1398.84 1089.91Q1396.54 1088.70 1395.21 1086.32Q1393.89 1083.95 1393.89 1080.59V1066.07H1398.96V1079.83Q1398.96 1083.14 1400.61 1084.91Q1402.27 1086.68 1405.14 1086.68Q1408.01 1086.68 1409.69 1084.91Q1411.37 1083.14 1411.37 1079.83V1066.07Z M1436.91 1065.67Q1440.18 1065.67 1442.83 1067.23Q1445.47 1068.80 1446.99 1071.69Q1448.52 1074.58 1448.52 1078.30Q1448.52 1082.02 1446.99 1084.96Q1445.47 1087.89 1442.80 1089.53Q1440.14 1091.16 1436.91 1091.16Q1434.04 1091.16 1431.82 1090.04Q1429.61 1088.92 1428.31 1087.18V1090.76H1423.20V1057.60H1428.31V1069.74Q1429.61 1067.95 1431.87 1066.81Q1434.13 1065.67 1436.91 1065.67ZM1435.79 1070.10Q1433.86 1070.10 1432.14 1071.09Q1430.41 1072.07 1429.36 1073.96Q1428.31 1075.84 1428.31 1078.39Q1428.31 1080.95 1429.36 1082.85Q1430.41 1084.76 1432.14 1085.74Q1433.86 1086.73 1435.79 1086.73Q1437.76 1086.73 1439.49 1085.72Q1441.21 1084.71 1442.27 1082.78Q1443.32 1080.86 1443.32 1078.30Q1443.32 1075.75 1442.27 1073.89Q1441.21 1072.03 1439.49 1071.07Q1437.76 1070.10 1435.79 1070.10Z M1464.47 1082.16H1469.94Q1470.12 1084.17 1471.53 1085.47Q1472.94 1086.77 1475.49 1086.77Q1478.14 1086.77 1479.62 1085.49Q1481.10 1084.22 1481.10 1082.20Q1481.10 1080.63 1480.18 1079.65Q1479.26 1078.66 1477.89 1078.12Q1476.52 1077.59 1474.10 1076.96Q1471.06 1076.15 1469.15 1075.32Q1467.25 1074.49 1465.90 1072.75Q1464.56 1071.00 1464.56 1068.09Q1464.56 1065.40 1465.90 1063.38Q1467.25 1061.36 1469.67 1060.29Q1472.09 1059.21 1475.27 1059.21Q1479.80 1059.21 1482.69 1061.48Q1485.58 1063.74 1485.89 1067.68H1480.24Q1480.11 1065.98 1478.63 1064.77Q1477.15 1063.56 1474.73 1063.56Q1472.54 1063.56 1471.15 1064.68Q1469.76 1065.80 1469.76 1067.91Q1469.76 1069.34 1470.63 1070.26Q1471.51 1071.18 1472.85 1071.71Q1474.19 1072.25 1476.52 1072.88Q1479.62 1073.73 1481.57 1074.58Q1483.52 1075.43 1484.88 1077.20Q1486.25 1078.97 1486.25 1081.93Q1486.25 1084.31 1484.97 1086.41Q1483.69 1088.52 1481.25 1089.80Q1478.81 1091.07 1475.49 1091.07Q1472.36 1091.07 1469.85 1089.98Q1467.34 1088.88 1465.90 1086.86Q1464.47 1084.84 1464.47 1082.16Z M1498.26 1070.24V1083.90Q1498.26 1085.29 1498.91 1085.90Q1499.56 1086.50 1501.13 1086.50H1504.26V1090.76H1500.23Q1496.78 1090.76 1494.94 1089.15Q1493.11 1087.53 1493.11 1083.90V1070.24H1490.19V1066.07H1493.11V1059.93H1498.26V1066.07H1504.26V1070.24Z M1518.92 1065.67Q1521.83 1065.67 1524.00 1066.81Q1526.18 1067.95 1527.48 1069.65V1066.07H1532.63V1090.76H1527.48V1087.09Q1526.18 1088.83 1523.94 1090.00Q1521.70 1091.16 1518.83 1091.16Q1515.65 1091.16 1513.00 1089.53Q1510.36 1087.89 1508.81 1084.96Q1507.27 1082.02 1507.27 1078.30Q1507.27 1074.58 1508.81 1071.71Q1510.36 1068.85 1513.02 1067.26Q1515.69 1065.67 1518.92 1065.67ZM1519.99 1070.10Q1518.02 1070.10 1516.32 1071.07Q1514.61 1072.03 1513.56 1073.89Q1512.51 1075.75 1512.51 1078.30Q1512.51 1080.86 1513.56 1082.78Q1514.61 1084.71 1516.34 1085.72Q1518.07 1086.73 1519.99 1086.73Q1521.96 1086.73 1523.67 1085.74Q1525.37 1084.76 1526.42 1082.85Q1527.48 1080.95 1527.48 1078.39Q1527.48 1075.84 1526.42 1073.96Q1525.37 1072.07 1523.67 1071.09Q1521.96 1070.10 1519.99 1070.10Z M1545.31 1070.24V1083.90Q1545.31 1085.29 1545.96 1085.90Q1546.61 1086.50 1548.18 1086.50H1551.32V1090.76H1547.28Q1543.83 1090.76 1542.00 1089.15Q1540.16 1087.53 1540.16 1083.90V1070.24H1537.25V1066.07H1540.16V1059.93H1545.31V1066.07H1551.32V1070.24Z M1555.35 1059.53Q1555.35 1058.14 1556.29 1057.20Q1557.23 1056.25 1558.62 1056.25Q1559.96 1056.25 1560.91 1057.20Q1561.85 1058.14 1561.85 1059.53Q1561.85 1060.92 1560.91 1061.86Q1559.96 1062.80 1558.62 1062.80Q1557.23 1062.80 1556.29 1061.86Q1555.35 1060.92 1555.35 1059.53ZM1561.13 1066.07V1090.76H1556.02V1066.07Z M1566.19 1078.39Q1566.19 1074.63 1567.85 1071.71Q1569.51 1068.80 1572.38 1067.23Q1575.25 1065.67 1578.79 1065.67Q1582.33 1065.67 1585.19 1067.23Q1588.06 1068.80 1589.72 1071.71Q1591.38 1074.63 1591.38 1078.39Q1591.38 1082.16 1589.68 1085.07Q1587.97 1087.98 1585.04 1089.57Q1582.10 1091.16 1578.56 1091.16Q1575.07 1091.16 1572.24 1089.57Q1569.42 1087.98 1567.81 1085.09Q1566.19 1082.20 1566.19 1078.39ZM1586.13 1078.39Q1586.13 1075.70 1585.10 1073.84Q1584.07 1071.98 1582.37 1071.04Q1580.67 1070.10 1578.70 1070.10Q1576.72 1070.10 1575.04 1071.04Q1573.36 1071.98 1572.38 1073.84Q1571.39 1075.70 1571.39 1078.39Q1571.39 1082.38 1573.43 1084.55Q1575.47 1086.73 1578.56 1086.73Q1580.53 1086.73 1582.26 1085.79Q1583.98 1084.84 1585.06 1082.96Q1586.13 1081.08 1586.13 1078.39Z M1619.03 1076.20V1090.76H1613.96V1076.96Q1613.96 1073.64 1612.31 1071.87Q1610.65 1070.10 1607.78 1070.10Q1604.91 1070.10 1603.23 1071.87Q1601.55 1073.64 1601.55 1076.96V1090.76H1596.44V1066.07H1601.55V1068.89Q1602.80 1067.37 1604.75 1066.52Q1606.70 1065.67 1608.90 1065.67Q1611.81 1065.67 1614.12 1066.88Q1616.43 1068.09 1617.73 1070.46Q1619.03 1072.84 1619.03 1076.20Z M1631.13 1084.62 1625.70 1096.99H1622.39L1625.57 1084.62Z M1672.13 1059.62V1090.76H1667.02V1077.14H1652.37V1090.76H1647.26V1059.62H1652.37V1072.97H1667.02V1059.62Z M1677.19 1078.39Q1677.19 1074.63 1678.85 1071.71Q1680.51 1068.80 1683.38 1067.23Q1686.24 1065.67 1689.79 1065.67Q1693.33 1065.67 1696.19 1067.23Q1699.06 1068.80 1700.72 1071.71Q1702.38 1074.63 1702.38 1078.39Q1702.38 1082.16 1700.67 1085.07Q1698.97 1087.98 1696.04 1089.57Q1693.10 1091.16 1689.56 1091.16Q1686.07 1091.16 1683.24 1089.57Q1680.42 1087.98 1678.81 1085.09Q1677.19 1082.20 1677.19 1078.39ZM1697.13 1078.39Q1697.13 1075.70 1696.10 1073.84Q1695.07 1071.98 1693.37 1071.04Q1691.67 1070.10 1689.70 1070.10Q1687.72 1070.10 1686.04 1071.04Q1684.36 1071.98 1683.38 1073.84Q1682.39 1075.70 1682.39 1078.39Q1682.39 1082.38 1684.43 1084.55Q1686.47 1086.73 1689.56 1086.73Q1691.53 1086.73 1693.26 1085.79Q1694.98 1084.84 1696.06 1082.96Q1697.13 1081.08 1697.13 1078.39Z M1717.84 1065.67Q1722.32 1065.67 1725.25 1067.79Q1728.19 1069.92 1729.22 1073.87H1723.71Q1723.04 1072.03 1721.56 1071.00Q1720.08 1069.97 1717.84 1069.97Q1714.70 1069.97 1712.84 1072.19Q1710.98 1074.40 1710.98 1078.39Q1710.98 1082.38 1712.84 1084.62Q1714.70 1086.86 1717.84 1086.86Q1722.27 1086.86 1723.71 1082.96H1729.22Q1728.14 1086.73 1725.19 1088.95Q1722.23 1091.16 1717.84 1091.16Q1714.30 1091.16 1711.56 1089.57Q1708.83 1087.98 1707.28 1085.09Q1705.74 1082.20 1705.74 1078.39Q1705.74 1074.58 1707.28 1071.69Q1708.83 1068.80 1711.56 1067.23Q1714.30 1065.67 1717.84 1065.67Z M1756.91 1076.20V1090.76H1751.85V1076.96Q1751.85 1073.64 1750.19 1071.87Q1748.53 1070.10 1745.67 1070.10Q1742.80 1070.10 1741.12 1071.87Q1739.44 1073.64 1739.44 1076.96V1090.76H1734.33V1057.60H1739.44V1068.94Q1740.74 1067.37 1742.73 1066.52Q1744.72 1065.67 1747.10 1065.67Q1749.92 1065.67 1752.14 1066.88Q1754.36 1068.09 1755.64 1070.46Q1756.91 1072.84 1756.91 1076.20Z M1785.86 1080.32H1767.00Q1767.22 1083.28 1769.19 1085.07Q1771.16 1086.86 1774.03 1086.86Q1778.15 1086.86 1779.86 1083.41H1785.37Q1784.25 1086.82 1781.31 1088.99Q1778.38 1091.16 1774.03 1091.16Q1770.49 1091.16 1767.69 1089.57Q1764.89 1087.98 1763.30 1085.09Q1761.71 1082.20 1761.71 1078.39Q1761.71 1074.58 1763.25 1071.69Q1764.80 1068.80 1767.60 1067.23Q1770.40 1065.67 1774.03 1065.67Q1777.53 1065.67 1780.26 1067.19Q1782.99 1068.71 1784.52 1071.47Q1786.04 1074.22 1786.04 1077.81Q1786.04 1079.20 1785.86 1080.32ZM1780.71 1076.20Q1780.66 1073.37 1778.69 1071.67Q1776.72 1069.97 1773.81 1069.97Q1771.16 1069.97 1769.28 1071.65Q1767.40 1073.33 1767.04 1076.20Z M1803.56 1065.67V1070.95H1802.26Q1799.26 1070.95 1797.71 1072.48Q1796.17 1074.00 1796.17 1077.76V1090.76H1791.06V1066.07H1796.17V1069.65Q1797.29 1067.77 1799.15 1066.72Q1801.01 1065.67 1803.56 1065.67Z M1844.43 1072.39V1076.69H1820.46V1072.39Z M1863.48 1066.34Q1863.48 1063.92 1864.69 1061.90Q1865.90 1059.88 1868.32 1058.70Q1870.74 1057.51 1874.23 1057.51Q1877.68 1057.51 1880.12 1058.70Q1882.57 1059.88 1883.78 1061.90Q1884.99 1063.92 1884.99 1066.34Q1884.99 1068.85 1883.71 1070.75Q1882.43 1072.66 1880.33 1073.69Q1882.88 1074.63 1884.36 1076.76Q1885.84 1078.88 1885.84 1081.75Q1885.84 1084.67 1884.36 1086.91Q1882.88 1089.15 1880.24 1090.36Q1877.59 1091.57 1874.23 1091.57Q1870.87 1091.57 1868.25 1090.36Q1865.63 1089.15 1864.15 1086.91Q1862.67 1084.67 1862.67 1081.75Q1862.67 1078.84 1864.15 1076.73Q1865.63 1074.63 1868.14 1073.69Q1863.48 1071.36 1863.48 1066.34ZM1874.23 1061.77Q1871.54 1061.77 1869.97 1063.11Q1868.41 1064.46 1868.41 1067.01Q1868.41 1069.25 1870.04 1070.66Q1871.68 1072.07 1874.23 1072.07Q1876.79 1072.07 1878.44 1070.64Q1880.10 1069.21 1880.10 1066.96Q1880.10 1064.46 1878.53 1063.11Q1876.96 1061.77 1874.23 1061.77ZM1867.55 1081.57Q1867.55 1084.13 1869.35 1085.72Q1871.14 1087.31 1874.23 1087.31Q1877.28 1087.31 1879.05 1085.70Q1880.82 1084.08 1880.82 1081.57Q1880.82 1078.88 1879.00 1077.41Q1877.19 1075.93 1874.23 1075.93Q1871.27 1075.93 1869.41 1077.38Q1867.55 1078.84 1867.55 1081.57Z M1901.84 1057.33Q1904.97 1057.33 1907.26 1058.45Q1909.54 1059.57 1910.71 1061.50Q1911.87 1063.42 1911.87 1065.84Q1911.87 1068.62 1910.39 1070.59Q1908.92 1072.57 1906.85 1073.24V1073.42Q1909.50 1074.22 1910.98 1076.35Q1912.46 1078.48 1912.46 1081.80Q1912.46 1084.44 1911.25 1086.50Q1910.04 1088.56 1907.66 1089.75Q1905.29 1090.94 1901.97 1090.94Q1897.13 1090.94 1894.02 1088.45Q1890.90 1085.97 1890.68 1081.30H1895.61Q1895.79 1083.68 1897.44 1085.18Q1899.10 1086.68 1901.93 1086.68Q1904.66 1086.68 1906.14 1085.18Q1907.62 1083.68 1907.62 1081.30Q1907.62 1078.17 1905.62 1076.85Q1903.63 1075.52 1899.51 1075.52H1898.34V1071.31H1899.55Q1903.18 1071.27 1905.08 1070.10Q1906.99 1068.94 1906.99 1066.43Q1906.99 1064.28 1905.60 1063.00Q1904.21 1061.72 1901.66 1061.72Q1899.15 1061.72 1897.76 1063.00Q1896.37 1064.28 1896.10 1066.16H1891.13Q1891.39 1061.99 1894.33 1059.66Q1897.26 1057.33 1901.84 1057.33Z M1917.21 1083.95V1080.09L1932.26 1058.50H1938.45V1079.51H1942.61V1083.95H1938.45V1090.76H1933.43V1083.95ZM1933.65 1063.69 1923.08 1079.51H1933.65Z M1958.48 1057.51Q1964.89 1057.51 1967.51 1061.88Q1970.13 1066.25 1970.13 1074.00Q1970.13 1081.84 1967.51 1086.26Q1964.89 1090.67 1958.48 1090.67Q1952.07 1090.67 1949.45 1086.26Q1946.83 1081.84 1946.83 1074.00Q1946.83 1066.25 1949.45 1061.88Q1952.07 1057.51 1958.48 1057.51ZM1958.48 1062.17Q1955.65 1062.17 1954.22 1063.76Q1952.79 1065.35 1952.32 1067.86Q1951.85 1070.37 1951.85 1074.00Q1951.85 1077.76 1952.29 1080.32Q1952.74 1082.87 1954.20 1084.44Q1955.65 1086.01 1958.48 1086.01Q1961.30 1086.01 1962.76 1084.44Q1964.21 1082.87 1964.66 1080.32Q1965.11 1077.76 1965.11 1074.00Q1965.11 1070.37 1964.64 1067.86Q1964.17 1065.35 1962.73 1063.76Q1961.30 1062.17 1958.48 1062.17Z M1987.20 1057.51Q1993.61 1057.51 1996.23 1061.88Q1998.85 1066.25 1998.85 1074.00Q1998.85 1081.84 1996.23 1086.26Q1993.61 1090.67 1987.20 1090.67Q1980.79 1090.67 1978.17 1086.26Q1975.55 1081.84 1975.55 1074.00Q1975.55 1066.25 1978.17 1061.88Q1980.79 1057.51 1987.20 1057.51ZM1987.20 1062.17Q1984.38 1062.17 1982.95 1063.76Q1981.51 1065.35 1981.04 1067.86Q1980.57 1070.37 1980.57 1074.00Q1980.57 1077.76 1981.02 1080.32Q1981.47 1082.87 1982.92 1084.44Q1984.38 1086.01 1987.20 1086.01Q1990.03 1086.01 1991.48 1084.44Q1992.94 1082.87 1993.39 1080.32Q1993.83 1077.76 1993.83 1074.00Q1993.83 1070.37 1993.36 1067.86Q1992.89 1065.35 1991.46 1063.76Q1990.03 1062.17 1987.20 1062.17Z M2016.42 1061.54Q2012.88 1061.54 2011.13 1064.25Q2009.38 1066.96 2009.29 1073.24Q2010.46 1071.27 2012.70 1070.19Q2014.94 1069.12 2017.54 1069.12Q2020.50 1069.12 2022.76 1070.39Q2025.02 1071.67 2026.30 1074.09Q2027.58 1076.51 2027.58 1079.87Q2027.58 1083.01 2026.35 1085.47Q2025.11 1087.94 2022.69 1089.35Q2020.27 1090.76 2016.87 1090.76Q2012.25 1090.76 2009.63 1088.72Q2007.01 1086.68 2005.96 1082.96Q2004.90 1079.24 2004.90 1073.69Q2004.90 1057.29 2016.46 1057.29Q2020.95 1057.29 2023.52 1059.71Q2026.10 1062.13 2026.55 1065.67H2021.84Q2021.35 1063.60 2020.05 1062.57Q2018.75 1061.54 2016.42 1061.54ZM2009.88 1079.78Q2009.88 1082.87 2011.65 1084.69Q2013.42 1086.50 2016.60 1086.50Q2019.42 1086.50 2021.06 1084.76Q2022.69 1083.01 2022.69 1080.09Q2022.69 1077.05 2021.10 1075.23Q2019.51 1073.42 2016.42 1073.42Q2013.69 1073.42 2011.78 1075.05Q2009.88 1076.69 2009.88 1079.78Z M2039.32 1084.62 2033.90 1096.99H2030.58L2033.76 1084.62Z M2071.63 1090.76 2064.46 1078.30H2060.56V1090.76H2055.45V1059.62H2066.21Q2069.79 1059.62 2072.28 1060.87Q2074.76 1062.13 2076.00 1064.23Q2077.23 1066.34 2077.23 1068.94Q2077.23 1071.98 2075.46 1074.47Q2073.69 1076.96 2070.01 1077.85L2077.72 1090.76ZM2060.56 1074.22H2066.21Q2069.07 1074.22 2070.53 1072.79Q2071.99 1071.36 2071.99 1068.94Q2071.99 1066.52 2070.55 1065.15Q2069.12 1063.78 2066.21 1063.78H2060.56Z M2093.72 1065.67Q2096.63 1065.67 2098.81 1066.81Q2100.98 1067.95 2102.28 1069.65V1066.07H2107.43V1090.76H2102.28V1087.09Q2100.98 1088.83 2098.74 1090.00Q2096.50 1091.16 2093.63 1091.16Q2090.45 1091.16 2087.81 1089.53Q2085.16 1087.89 2083.62 1084.96Q2082.07 1082.02 2082.07 1078.30Q2082.07 1074.58 2083.62 1071.71Q2085.16 1068.85 2087.83 1067.26Q2090.49 1065.67 2093.72 1065.67ZM2094.80 1070.10Q2092.82 1070.10 2091.12 1071.07Q2089.42 1072.03 2088.37 1073.89Q2087.31 1075.75 2087.31 1078.30Q2087.31 1080.86 2088.37 1082.78Q2089.42 1084.71 2091.14 1085.72Q2092.87 1086.73 2094.80 1086.73Q2096.77 1086.73 2098.47 1085.74Q2100.17 1084.76 2101.23 1082.85Q2102.28 1080.95 2102.28 1078.39Q2102.28 1075.84 2101.23 1073.96Q2100.17 1072.07 2098.47 1071.09Q2096.77 1070.10 2094.80 1070.10Z M2136.74 1076.20V1090.76H2131.68V1076.96Q2131.68 1073.64 2130.02 1071.87Q2128.36 1070.10 2125.49 1070.10Q2122.62 1070.10 2120.94 1071.87Q2119.26 1073.64 2119.26 1076.96V1090.76H2114.15V1066.07H2119.26V1068.89Q2120.52 1067.37 2122.47 1066.52Q2124.42 1065.67 2126.61 1065.67Q2129.53 1065.67 2131.83 1066.88Q2134.14 1068.09 2135.44 1070.46Q2136.74 1072.84 2136.74 1076.20Z M2153.63 1065.67Q2158.12 1065.67 2161.05 1067.79Q2163.99 1069.92 2165.02 1073.87H2159.50Q2158.83 1072.03 2157.35 1071.00Q2155.87 1069.97 2153.63 1069.97Q2150.50 1069.97 2148.64 1072.19Q2146.78 1074.40 2146.78 1078.39Q2146.78 1082.38 2148.64 1084.62Q2150.50 1086.86 2153.63 1086.86Q2158.07 1086.86 2159.50 1082.96H2165.02Q2163.94 1086.73 2160.98 1088.95Q2158.03 1091.16 2153.63 1091.16Q2150.09 1091.16 2147.36 1089.57Q2144.63 1087.98 2143.08 1085.09Q2141.53 1082.20 2141.53 1078.39Q2141.53 1074.58 2143.08 1071.69Q2144.63 1068.80 2147.36 1067.23Q2150.09 1065.67 2153.63 1065.67Z M2192.71 1076.20V1090.76H2187.65V1076.96Q2187.65 1073.64 2185.99 1071.87Q2184.33 1070.10 2181.46 1070.10Q2178.59 1070.10 2176.91 1071.87Q2175.23 1073.64 2175.23 1076.96V1090.76H2170.12V1057.60H2175.23V1068.94Q2176.53 1067.37 2178.53 1066.52Q2180.52 1065.67 2182.90 1065.67Q2185.72 1065.67 2187.94 1066.88Q2190.16 1068.09 2191.43 1070.46Q2192.71 1072.84 2192.71 1076.20Z M2198.54 1059.53Q2198.54 1058.14 2199.48 1057.20Q2200.42 1056.25 2201.81 1056.25Q2203.15 1056.25 2204.09 1057.20Q2205.03 1058.14 2205.03 1059.53Q2205.03 1060.92 2204.09 1061.86Q2203.15 1062.80 2201.81 1062.80Q2200.42 1062.80 2199.48 1061.86Q2198.54 1060.92 2198.54 1059.53ZM2204.32 1066.07V1090.76H2199.21V1066.07Z" fill="#6B7280"/>
</svg>
