<?xml version="1.0" encoding="UTF-8"?>
<!-- Arya Vidya Play School - "Tree of Learning" logo. LOCKED master artwork. -->
<svg xmlns="http://www.w3.org/2000/svg" viewBox="20 20 260 220" width="260" height="220" role="img" aria-label="Arya Vidya Play School mark">
  <title>Arya Vidya Play School — mark</title>
  <defs>
    <linearGradient id="treeTop" x1="0%" y1="0%" x2="0%" y2="100%">
      <stop offset="0%" stop-color="#6BCB77"/>
      <stop offset="100%" stop-color="#4DAA57"/>
    </linearGradient>
    <linearGradient id="trunk" x1="0%" y1="0%" x2="100%" y2="0%">
      <stop offset="0%" stop-color="#8B5A2B"/>
      <stop offset="100%" stop-color="#A0522D"/>
    </linearGradient>
  </defs>
  <!-- Tree trunk -->
  <path d="M140 180 L145 130 L155 130 L160 180 Z" fill="url(#trunk)"/>

  <!-- Tree foliage - layered circles -->
  <circle cx="150" cy="85" r="45" fill="url(#treeTop)"/>
  <circle cx="115" cy="105" r="32" fill="#5DBB6A"/>
  <circle cx="185" cy="105" r="32" fill="#5DBB6A"/>
  <circle cx="130" cy="75" r="28" fill="#7ED687"/>
  <circle cx="170" cy="75" r="28" fill="#7ED687"/>
  <circle cx="150" cy="55" r="22" fill="#8FE09A"/>

  <!-- Colorful fruits / flowers -->
  <circle cx="125" cy="70" r="8" fill="#FF6B6B"/>
  <circle cx="175" cy="70" r="8" fill="#FFD93D"/>
  <circle cx="150" cy="50" r="8" fill="#4D96FF"/>
  <circle cx="110" cy="100" r="7" fill="#9B59B6"/>
  <circle cx="190" cy="100" r="7" fill="#FF9F1C"/>
  <circle cx="140" cy="90" r="6" fill="#FF6B9D"/>
  <circle cx="160" cy="90" r="6" fill="#00D9FF"/>

  <!-- Left child -->
  <circle cx="80" cy="175" r="12" fill="#FFEAA7"/>
  <circle cx="76" cy="173" r="2" fill="#2D3436"/>
  <circle cx="84" cy="173" r="2" fill="#2D3436"/>
  <path d="M76 179 Q80 183 84 179" stroke="#2D3436" stroke-width="1.5" fill="none"/>
  <ellipse cx="80" cy="205" rx="12" ry="18" fill="#FF6B6B"/>
  <line x1="68" y1="200" x2="60" y2="190" stroke="#FFEAA7" stroke-width="4" stroke-linecap="round"/>
  <line x1="92" y1="200" x2="100" y2="190" stroke="#FFEAA7" stroke-width="4" stroke-linecap="round"/>

  <!-- Right child -->
  <circle cx="220" cy="175" r="12" fill="#DFB48C"/>
  <circle cx="216" cy="173" r="2" fill="#2D3436"/>
  <circle cx="224" cy="173" r="2" fill="#2D3436"/>
  <path d="M216 179 Q220 183 224 179" stroke="#2D3436" stroke-width="1.5" fill="none"/>
  <ellipse cx="220" cy="205" rx="12" ry="18" fill="#4D96FF"/>
  <line x1="208" y1="200" x2="200" y2="190" stroke="#DFB48C" stroke-width="4" stroke-linecap="round"/>
  <line x1="232" y1="200" x2="240" y2="190" stroke="#DFB48C" stroke-width="4" stroke-linecap="round"/>

  <!-- Ground -->
  <ellipse cx="150" cy="225" rx="100" ry="12" fill="#90EE90" opacity="0.5"/>
</svg>
