<?xml version="1.0" encoding="UTF-8"?>
<!-- Arya Vidya Play School - "Tree of Learning" logo. LOCKED master artwork. -->
<svg xmlns="http://www.w3.org/2000/svg" viewBox="0 0 300 300" width="300" height="300" role="img" aria-label="Arya Vidya Play School">
  <title>Arya Vidya Play School</title>
  <defs>
    <linearGradient id="treeTop" x1="0%" y1="0%" x2="0%" y2="100%">
      <stop offset="0%" stop-color="#6BCB77"/>
      <stop offset="100%" stop-color="#4DAA57"/>
    </linearGradient>
    <linearGradient id="trunk" x1="0%" y1="0%" x2="100%" y2="0%">
      <stop offset="0%" stop-color="#8B5A2B"/>
      <stop offset="100%" stop-color="#A0522D"/>
    </linearGradient>
  </defs>
  <!-- Tree trunk -->
  <path d="M140 180 L145 130 L155 130 L160 180 Z" fill="url(#trunk)"/>

  <!-- Tree foliage - layered circles -->
  <circle cx="150" cy="85" r="45" fill="url(#treeTop)"/>
  <circle cx="115" cy="105" r="32" fill="#5DBB6A"/>
  <circle cx="185" cy="105" r="32" fill="#5DBB6A"/>
  <circle cx="130" cy="75" r="28" fill="#7ED687"/>
  <circle cx="170" cy="75" r="28" fill="#7ED687"/>
  <circle cx="150" cy="55" r="22" fill="#8FE09A"/>

  <!-- Colorful fruits / flowers -->
  <circle cx="125" cy="70" r="8" fill="#FF6B6B"/>
  <circle cx="175" cy="70" r="8" fill="#FFD93D"/>
  <circle cx="150" cy="50" r="8" fill="#4D96FF"/>
  <circle cx="110" cy="100" r="7" fill="#9B59B6"/>
  <circle cx="190" cy="100" r="7" fill="#FF9F1C"/>
  <circle cx="140" cy="90" r="6" fill="#FF6B9D"/>
  <circle cx="160" cy="90" r="6" fill="#00D9FF"/>

  <!-- Left child -->
  <circle cx="80" cy="175" r="12" fill="#FFEAA7"/>
  <circle cx="76" cy="173" r="2" fill="#2D3436"/>
  <circle cx="84" cy="173" r="2" fill="#2D3436"/>
  <path d="M76 179 Q80 183 84 179" stroke="#2D3436" stroke-width="1.5" fill="none"/>
  <ellipse cx="80" cy="205" rx="12" ry="18" fill="#FF6B6B"/>
  <line x1="68" y1="200" x2="60" y2="190" stroke="#FFEAA7" stroke-width="4" stroke-linecap="round"/>
  <line x1="92" y1="200" x2="100" y2="190" stroke="#FFEAA7" stroke-width="4" stroke-linecap="round"/>

  <!-- Right child -->
  <circle cx="220" cy="175" r="12" fill="#DFB48C"/>
  <circle cx="216" cy="173" r="2" fill="#2D3436"/>
  <circle cx="224" cy="173" r="2" fill="#2D3436"/>
  <path d="M216 179 Q220 183 224 179" stroke="#2D3436" stroke-width="1.5" fill="none"/>
  <ellipse cx="220" cy="205" rx="12" ry="18" fill="#4D96FF"/>
  <line x1="208" y1="200" x2="200" y2="190" stroke="#DFB48C" stroke-width="4" stroke-linecap="round"/>
  <line x1="232" y1="200" x2="240" y2="190" stroke="#DFB48C" stroke-width="4" stroke-linecap="round"/>

  <!-- Ground -->
  <ellipse cx="150" cy="225" rx="100" ry="12" fill="#90EE90" opacity="0.5"/>

  <!-- Wordmark: "Arya Vidya" (Bubblegum Sans 26, outlined) -->
  <path d="M104.409 254.176Q104.045 254.15 102.173 254.15Q100.301 254.15 99.989 254.254Q98.611 258.778 98.429 260.78Q98.429 260.806 97.792 260.806Q97.155 260.806 96.479 260.728Q95.049 260.52 95.049 260.364Q95.049 259.324 96.895 254.306Q96.557 254.02 96.11500000000001 253.123Q95.673 252.226 95.673 251.628Q95.673 251.602 97.831 251.524Q99.963 245.336 100.249 244.998Q100.353 244.92 101.185 244.75099999999998Q102.017 244.582 102.251 244.582L102.199 244.244Q102.147 243.88 102.082 243.451Q102.017 243.022 102.017 242.892Q102.017 242.814 102.459 242.58Q103.733 241.956 105.08500000000001 241.956Q105.345 243.49 105.774 245.869Q106.203 248.248 107.451 253.136Q108.699 258.024 109.843 259.948L110.025 260.26Q110.025 260.39 109.531 260.702Q109.037 261.014 108.231 261.3Q107.425 261.586 106.749 261.586Q106.515 261.586 105.618 258.635Q104.721 255.684 104.409 254.176ZM103.785 251.498Q102.901 247.754 102.82300000000001 247.312Q102.745 246.87 102.69300000000001 246.87Q102.641 246.87 102.563 246.974Q102.32900000000001 247.416 101.69200000000001 249.106Q101.055 250.796 100.873 251.446Q103.759 251.446 103.785 251.498Z M111.767 256.49 111.71499999999999 250.588Q111.71499999999999 249.054 111.81899999999999 248.95Q112.10499999999999 248.664 112.80699999999999 248.44299999999998Q113.50899999999999 248.222 114.11999999999999 248.222Q114.731 248.222 114.731 248.352Q114.65299999999999 249.054 114.65299999999999 249.95100000000002Q114.65299999999999 250.848 114.70499999999998 250.848Q114.75699999999999 250.848 114.809 250.78300000000002Q114.86099999999999 250.718 114.978 250.575Q115.095 250.432 115.472 250.06799999999998Q115.84899999999999 249.704 116.291 249.444Q117.40899999999999 248.716 118.68299999999999 248.716Q118.89099999999999 249.054 118.89099999999999 249.756Q118.89099999999999 251.238 118.52699999999999 251.862L118.42299999999999 252.07L118.085 252.018Q116.213 252.018 115.14699999999999 253.552Q114.731 254.176 114.731 254.488V256.776Q114.731 259.896 114.65299999999999 259.974Q113.925 260.676 111.79299999999999 260.676Q111.585 260.676 111.585 260.598Q111.767 259.584 111.767 256.49Z M129.52499999999998 252.746 129.551 259.662Q129.551 261.69 129.01799999999997 263.276Q128.48499999999999 264.862 127.71799999999999 265.72Q126.951 266.578 125.963 267.124Q124.35099999999998 268.034 122.687 268.034Q122.609 268.034 122.375 267.644Q122.14099999999999 267.254 121.93299999999999 266.591Q121.725 265.928 121.725 265.356Q122.713 265.356 123.701 264.979Q124.689 264.602 125.079 264.173Q125.469 263.744 125.859 263.094Q126.66499999999999 261.82 126.66499999999999 258.96L126.639 258.206Q126.639 258.05 126.58699999999999 258.05Q126.535 258.05 126.483 258.12800000000004Q126.431 258.206 126.353 258.323Q126.27499999999999 258.44 125.976 258.73900000000003Q125.67699999999999 259.038 125.33899999999998 259.272Q124.42899999999999 259.896 123.50599999999999 259.896Q122.58299999999998 259.896 122.04999999999998 259.66200000000003Q121.517 259.428 121.166 259.06399999999996Q120.815 258.7 120.58099999999999 258.03700000000003Q120.347 257.374 120.21699999999998 256.802Q120.08699999999999 256.23 120.035 255.242Q119.931 253.864 119.931 252.382Q119.931 250.328 120.139 249.028L120.21699999999998 248.664Q120.21699999999998 248.482 121.00999999999999 248.3Q121.803 248.118 122.323 248.118L123.15499999999999 248.248Q122.86899999999999 250.822 122.86899999999999 252.59Q122.86899999999999 254.358 123.23299999999999 255.528Q123.597 256.698 124.45499999999998 256.698Q125.31299999999999 256.698 125.82 256.191Q126.327 255.684 126.457 255.19L126.58699999999999 254.696Q126.535 253.058 126.535 251.173Q126.535 249.288 126.66499999999999 249.15800000000002Q127.00299999999999 248.82 127.84799999999998 248.63799999999998Q128.69299999999998 248.456 129.213 248.456Q129.733 248.456 129.733 248.534Q129.52499999999998 249.756 129.52499999999998 252.746Z M141.355 254.202Q141.355 257.452 141.433 257.998Q141.641 259.428 142.317 260.052Q142.317 260.338 141.29000000000002 260.91Q140.263 261.482 139.43099999999998 261.482Q139.197 261.482 138.937 260.793Q138.677 260.104 138.63799999999998 259.76599999999996Q138.599 259.428 138.573 259.428L138.495 259.48Q137.117 260.572 135.271 260.572Q133.42499999999998 260.572 132.42399999999998 259.675Q131.423 258.778 131.423 257.322Q131.423 255.866 132.06 254.865Q132.697 253.864 133.555 253.344Q134.41299999999998 252.824 135.453 252.512Q137.039 251.992 137.94899999999998 251.992L138.001 251.966Q138.001 250.692 134.777 250.692Q133.503 250.692 132.879 250.796H132.853Q132.853 250.276 133.178 249.496Q133.503 248.716 133.724 248.482Q133.945 248.248 135.583 248.248Q138.547 248.248 139.951 249.379Q141.355 250.51 141.355 252.876ZM138.469 255.866V254.878Q138.469 254.306 138.44299999999998 254.306Q136.701 254.306 135.427 255.216Q134.621 255.788 134.621 256.646Q134.621 257.192 135.01100000000002 257.55600000000004Q135.401 257.92 136.19400000000002 257.92Q136.987 257.92 137.728 257.452Q138.469 256.984 138.469 255.866Z M154.017 261.248Q153.75699999999998 261.248 153.70499999999998 261.196Q152.84699999999998 260.416 150.50699999999998 253.37Q148.16699999999997 246.324 148.16699999999997 243.698Q148.16699999999997 243.64600000000002 148.53099999999998 243.49Q149.623 242.996 150.51999999999998 242.996Q151.41699999999997 242.996 151.41699999999997 243.074Q151.521 244.348 152.964 249.808Q154.40699999999998 255.268 155.44699999999997 257.374Q155.68099999999998 257.842 155.915 257.608Q155.993 257.53 156.01899999999998 257.426Q156.72099999999998 256.1 158.034 252.031Q159.34699999999998 247.962 159.34699999999998 245.336Q159.34699999999998 245.024 158.762 244.66Q158.177 244.296 157.70899999999997 244.244Q157.683 244.192 157.683 243.958Q157.683 243.724 157.813 243.21699999999998Q157.94299999999998 242.71 158.04699999999997 242.632Q160.439 241.982 162.831 241.982Q163.22099999999998 242.034 163.22099999999998 242.086Q163.22099999999998 244.322 162.01199999999997 248.781Q160.80299999999997 253.24 159.529 256.73699999999997Q158.255 260.234 157.86499999999998 260.624Q156.72099999999998 261.248 154.017 261.248Z M166.64 244.478Q167.355 244.478 167.797 244.946Q168.239 245.414 168.239 246.168Q168.239 246.922 167.654 247.45499999999998Q167.069 247.988 166.35399999999998 247.988Q165.63899999999998 247.988 165.20999999999998 247.53300000000002Q164.781 247.078 164.781 246.324Q164.781 245.57 165.353 245.024Q165.92499999999998 244.478 166.64 244.478ZM167.953 250.952 167.90099999999998 255.164Q167.90099999999998 257.192 168.01799999999997 258.14099999999996Q168.135 259.09 168.68099999999998 259.922Q168.68099999999998 260.182 167.615 260.754Q166.549 261.326 165.795 261.326Q165.561 261.326 165.327 260.54600000000005Q165.093 259.766 165.028 259.064Q164.963 258.362 164.963 254.332Q164.963 250.302 165.14499999999998 249.938Q165.743 249.47 167.251 249.47Q167.849 249.47 167.97899999999998 249.626Z M177.001 248.846 176.94899999999998 244.998Q176.94899999999998 243.386 177.027 243.308Q177.339 242.996 178.054 242.697Q178.769 242.398 179.41899999999998 242.398Q180.069 242.398 180.069 242.502Q179.861 246.818 179.861 251.68Q179.861 256.542 180.017 257.478Q180.19899999999998 258.882 180.875 259.558Q180.875 259.818 179.796 260.37699999999995Q178.71699999999998 260.936 177.963 260.936Q177.885 260.936 177.72899999999998 260.728Q177.23499999999999 260.078 177.131 258.96Q177.131 258.882 177.07899999999998 258.882L177.001 258.934Q175.909 260.494 173.751 260.494Q172.009 260.494 170.995 259.116Q169.981 257.738 169.981 256.022Q169.981 253.084 171.801 251.017Q173.62099999999998 248.95 177.001 248.846ZM177.053 251.576Q177.053 251.524 176.767 251.524H176.66299999999998Q174.999 251.524 174.05 252.59Q173.101 253.656 173.101 255.294Q173.101 256.256 173.55599999999998 256.86699999999996Q174.011 257.478 174.934 257.478Q175.857 257.478 176.416 256.672Q176.975 255.866 176.975 255.398Q176.975 252.512 177.053 251.576Z M192.41899999999998 252.746 192.445 259.662Q192.445 261.69 191.91199999999998 263.276Q191.379 264.862 190.612 265.72Q189.845 266.578 188.857 267.124Q187.245 268.034 185.581 268.034Q185.503 268.034 185.269 267.644Q185.035 267.254 184.827 266.591Q184.619 265.928 184.619 265.356Q185.607 265.356 186.595 264.979Q187.583 264.602 187.973 264.173Q188.363 263.744 188.753 263.094Q189.559 261.82 189.559 258.96L189.533 258.206Q189.533 258.05 189.481 258.05Q189.429 258.05 189.377 258.12800000000004Q189.325 258.206 189.24699999999999 258.323Q189.16899999999998 258.44 188.87 258.73900000000003Q188.571 259.038 188.233 259.272Q187.323 259.896 186.4 259.896Q185.477 259.896 184.94400000000002 259.66200000000003Q184.411 259.428 184.06 259.06399999999996Q183.709 258.7 183.475 258.03700000000003Q183.24099999999999 257.374 183.111 256.802Q182.981 256.23 182.929 255.242Q182.825 253.864 182.825 252.382Q182.825 250.328 183.033 249.028L183.111 248.664Q183.111 248.482 183.904 248.3Q184.697 248.118 185.21699999999998 248.118L186.049 248.248Q185.763 250.822 185.763 252.59Q185.763 254.358 186.127 255.528Q186.49099999999999 256.698 187.349 256.698Q188.207 256.698 188.714 256.191Q189.221 255.684 189.351 255.19L189.481 254.696Q189.429 253.058 189.429 251.173Q189.429 249.288 189.559 249.15800000000002Q189.897 248.82 190.742 248.63799999999998Q191.587 248.456 192.107 248.456Q192.627 248.456 192.627 248.534Q192.41899999999998 249.756 192.41899999999998 252.746Z M204.249 254.202Q204.249 257.452 204.327 257.998Q204.535 259.428 205.211 260.052Q205.211 260.338 204.18400000000003 260.91Q203.157 261.482 202.325 261.482Q202.091 261.482 201.83100000000002 260.793Q201.571 260.104 201.53199999999998 259.76599999999996Q201.493 259.428 201.467 259.428L201.389 259.48Q200.011 260.572 198.165 260.572Q196.319 260.572 195.31799999999998 259.675Q194.317 258.778 194.317 257.322Q194.317 255.866 194.954 254.865Q195.591 253.864 196.449 253.344Q197.307 252.824 198.347 252.512Q199.933 251.992 200.843 251.992L200.895 251.966Q200.895 250.692 197.671 250.692Q196.397 250.692 195.773 250.796H195.747Q195.747 250.276 196.072 249.496Q196.397 248.716 196.618 248.482Q196.839 248.248 198.477 248.248Q201.441 248.248 202.845 249.379Q204.249 250.51 204.249 252.876ZM201.363 255.866V254.878Q201.363 254.306 201.337 254.306Q199.595 254.306 198.321 255.216Q197.51500000000001 255.788 197.51500000000001 256.646Q197.51500000000001 257.192 197.90500000000003 257.55600000000004Q198.29500000000002 257.92 199.08800000000002 257.92Q199.881 257.92 200.622 257.452Q201.363 256.984 201.363 255.866Z" fill="#4DAA57"/>

  <!-- Tagline: "PLAY SCHOOL" (Poppins 14, +2 tracking, outlined) -->
  <path d="M98.091 280.926H96.215V285.0H94.941V275.242H98.091Q99.743 275.242 100.604 276.04Q101.465 276.838 101.465 278.098Q101.465 279.316 100.632 280.121Q99.799 280.926 98.091 280.926ZM100.163 278.098Q100.163 276.292 98.091 276.292H96.215V279.876H98.091Q99.155 279.876 99.65899999999999 279.414Q100.163 278.952 100.163 278.098Z M106.321 283.964H109.737V285.0H105.047V275.242H106.321Z M118.863 282.83H114.607L113.823 285.0H112.479L116.00699999999999 275.298H117.47699999999999L120.991 285.0H119.64699999999999ZM118.499 281.794 116.735 276.866 114.97099999999999 281.794Z M131.363 275.242 128.185 281.318V285.0H126.911V281.318L123.71900000000001 275.242H125.13300000000001L127.541 280.184L129.949 275.242Z M140.165 282.396H141.523Q141.593 283.082 142.08999999999997 283.551Q142.587 284.02 143.539 284.02Q144.44899999999998 284.02 144.974 283.565Q145.499 283.11 145.499 282.396Q145.499 281.836 145.19099999999997 281.486Q144.88299999999998 281.136 144.421 280.954Q143.959 280.772 143.17499999999998 280.562Q142.209 280.31 141.628 280.058Q141.047 279.806 140.63400000000001 279.267Q140.221 278.728 140.221 277.818Q140.221 277.02 140.627 276.404Q141.033 275.788 141.76799999999997 275.452Q142.503 275.116 143.45499999999998 275.116Q144.827 275.116 145.702 275.802Q146.577 276.488 146.689 277.622H145.289Q145.219 277.062 144.701 276.635Q144.183 276.208 143.32899999999998 276.208Q142.53099999999998 276.208 142.027 276.621Q141.523 277.034 141.523 277.776Q141.523 278.308 141.824 278.644Q142.125 278.98 142.56599999999997 279.155Q143.00699999999998 279.33 143.80499999999998 279.554Q144.771 279.82 145.35899999999998 280.079Q145.947 280.338 146.367 280.877Q146.78699999999998 281.416 146.78699999999998 282.34Q146.78699999999998 283.054 146.409 283.68399999999997Q146.03099999999998 284.314 145.289 284.706Q144.547 285.098 143.539 285.098Q142.57299999999998 285.098 141.81 284.755Q141.047 284.412 140.613 283.803Q140.179 283.194 140.165 282.396Z M155.05899999999997 275.116Q156.65499999999997 275.116 157.84499999999997 275.88599999999997Q159.03499999999997 276.656 159.581 278.07H158.05499999999998Q157.64899999999997 277.188 156.88599999999997 276.712Q156.123 276.236 155.05899999999997 276.236Q154.03699999999998 276.236 153.22499999999997 276.712Q152.41299999999998 277.188 151.95099999999996 278.063Q151.48899999999998 278.938 151.48899999999998 280.114Q151.48899999999998 281.276 151.95099999999996 282.151Q152.41299999999998 283.026 153.22499999999997 283.502Q154.03699999999998 283.978 155.05899999999997 283.978Q156.123 283.978 156.88599999999997 283.509Q157.64899999999997 283.04 158.05499999999998 282.158H159.581Q159.03499999999997 283.558 157.84499999999997 284.321Q156.65499999999997 285.084 155.05899999999997 285.084Q153.70099999999996 285.084 152.58799999999997 284.447Q151.47499999999997 283.81 150.83099999999996 282.676Q150.18699999999998 281.542 150.18699999999998 280.114Q150.18699999999998 278.686 150.83099999999996 277.54499999999996Q151.47499999999997 276.404 152.58799999999997 275.76Q153.70099999999996 275.116 155.05899999999997 275.116Z M170.98899999999998 275.242V285.0H169.71499999999997V280.576H164.74499999999998V285.0H163.47099999999998V275.242H164.74499999999998V279.526H169.71499999999997V275.242Z M174.68299999999996 280.114Q174.68299999999996 278.686 175.33399999999995 277.54499999999996Q175.98499999999996 276.404 177.10499999999996 275.767Q178.22499999999997 275.13 179.58299999999997 275.13Q180.95499999999996 275.13 182.07499999999996 275.767Q183.19499999999996 276.404 183.83899999999994 277.538Q184.48299999999995 278.672 184.48299999999995 280.114Q184.48299999999995 281.556 183.83899999999994 282.69Q183.19499999999996 283.824 182.07499999999996 284.461Q180.95499999999996 285.098 179.58299999999997 285.098Q178.22499999999997 285.098 177.10499999999996 284.461Q175.98499999999996 283.824 175.33399999999995 282.683Q174.68299999999996 281.542 174.68299999999996 280.114ZM183.18099999999995 280.114Q183.18099999999995 278.938 182.71199999999996 278.063Q182.24299999999997 277.188 181.43099999999998 276.712Q180.61899999999997 276.236 179.58299999999997 276.236Q178.54699999999997 276.236 177.73499999999996 276.712Q176.92299999999997 277.188 176.45399999999995 278.063Q175.98499999999996 278.938 175.98499999999996 280.114Q175.98499999999996 281.276 176.45399999999995 282.158Q176.92299999999997 283.04 177.74199999999996 283.516Q178.56099999999995 283.992 179.58299999999997 283.992Q180.60499999999996 283.992 181.42399999999998 283.516Q182.24299999999997 283.04 182.71199999999996 282.158Q183.18099999999995 281.276 183.18099999999995 280.114Z M187.68699999999995 280.114Q187.68699999999995 278.686 188.33799999999997 277.54499999999996Q188.98899999999995 276.404 190.10899999999995 275.767Q191.22899999999996 275.13 192.58699999999996 275.13Q193.95899999999995 275.13 195.07899999999995 275.767Q196.19899999999996 276.404 196.84299999999996 277.538Q197.48699999999997 278.672 197.48699999999997 280.114Q197.48699999999997 281.556 196.84299999999996 282.69Q196.19899999999996 283.824 195.07899999999995 284.461Q193.95899999999995 285.098 192.58699999999996 285.098Q191.22899999999996 285.098 190.10899999999995 284.461Q188.98899999999995 283.824 188.33799999999997 282.683Q187.68699999999995 281.542 187.68699999999995 280.114ZM196.18499999999995 280.114Q196.18499999999995 278.938 195.71599999999995 278.063Q195.24699999999996 277.188 194.43499999999995 276.712Q193.62299999999996 276.236 192.58699999999996 276.236Q191.55099999999996 276.236 190.73899999999998 276.712Q189.92699999999996 277.188 189.45799999999997 278.063Q188.98899999999995 278.938 188.98899999999995 280.114Q188.98899999999995 281.276 189.45799999999997 282.158Q189.92699999999996 283.04 190.74599999999995 283.516Q191.56499999999994 283.992 192.58699999999996 283.992Q193.60899999999995 283.992 194.42799999999994 283.516Q195.24699999999996 283.04 195.71599999999995 282.158Q196.18499999999995 281.276 196.18499999999995 280.114Z M202.44099999999995 283.964H205.85699999999994V285.0H201.16699999999994V275.242H202.44099999999995Z" fill="#6B7280"/>
</svg>
