<?xml version="1.0" encoding="UTF-8"?>
<!-- Arya Vidya Play School - "Tree of Learning" logo. LOCKED master artwork. -->
<svg xmlns="http://www.w3.org/2000/svg" viewBox="20 20 680 200" width="680" height="200" role="img" aria-label="Arya Vidya Play School">
  <title>Arya Vidya Play School — horizontal lockup</title>
  <defs>
    <linearGradient id="treeTop" x1="0%" y1="0%" x2="0%" y2="100%">
      <stop offset="0%" stop-color="#6BCB77"/>
      <stop offset="100%" stop-color="#4DAA57"/>
    </linearGradient>
    <linearGradient id="trunk" x1="0%" y1="0%" x2="100%" y2="0%">
      <stop offset="0%" stop-color="#8B5A2B"/>
      <stop offset="100%" stop-color="#A0522D"/>
    </linearGradient>
  </defs>
  <g transform="translate(0,10)">
  <!-- Tree trunk -->
  <path d="M140 180 L145 130 L155 130 L160 180 Z" fill="url(#trunk)"/>

  <!-- Tree foliage - layered circles -->
  <circle cx="150" cy="85" r="45" fill="url(#treeTop)"/>
  <circle cx="115" cy="105" r="32" fill="#5DBB6A"/>
  <circle cx="185" cy="105" r="32" fill="#5DBB6A"/>
  <circle cx="130" cy="75" r="28" fill="#7ED687"/>
  <circle cx="170" cy="75" r="28" fill="#7ED687"/>
  <circle cx="150" cy="55" r="22" fill="#8FE09A"/>

  <!-- Colorful fruits / flowers -->
  <circle cx="125" cy="70" r="8" fill="#FF6B6B"/>
  <circle cx="175" cy="70" r="8" fill="#FFD93D"/>
  <circle cx="150" cy="50" r="8" fill="#4D96FF"/>
  <circle cx="110" cy="100" r="7" fill="#9B59B6"/>
  <circle cx="190" cy="100" r="7" fill="#FF9F1C"/>
  <circle cx="140" cy="90" r="6" fill="#FF6B9D"/>
  <circle cx="160" cy="90" r="6" fill="#00D9FF"/>

  <!-- Left child -->
  <circle cx="80" cy="175" r="12" fill="#FFEAA7"/>
  <circle cx="76" cy="173" r="2" fill="#2D3436"/>
  <circle cx="84" cy="173" r="2" fill="#2D3436"/>
  <path d="M76 179 Q80 183 84 179" stroke="#2D3436" stroke-width="1.5" fill="none"/>
  <ellipse cx="80" cy="205" rx="12" ry="18" fill="#FF6B6B"/>
  <line x1="68" y1="200" x2="60" y2="190" stroke="#FFEAA7" stroke-width="4" stroke-linecap="round"/>
  <line x1="92" y1="200" x2="100" y2="190" stroke="#FFEAA7" stroke-width="4" stroke-linecap="round"/>

  <!-- Right child -->
  <circle cx="220" cy="175" r="12" fill="#DFB48C"/>
  <circle cx="216" cy="173" r="2" fill="#2D3436"/>
  <circle cx="224" cy="173" r="2" fill="#2D3436"/>
  <path d="M216 179 Q220 183 224 179" stroke="#2D3436" stroke-width="1.5" fill="none"/>
  <ellipse cx="220" cy="205" rx="12" ry="18" fill="#4D96FF"/>
  <line x1="208" y1="200" x2="200" y2="190" stroke="#DFB48C" stroke-width="4" stroke-linecap="round"/>
  <line x1="232" y1="200" x2="240" y2="190" stroke="#DFB48C" stroke-width="4" stroke-linecap="round"/>

  <!-- Ground -->
  <ellipse cx="150" cy="225" rx="100" ry="12" fill="#90EE90" opacity="0.5"/>
  </g>
  <path d="M337.71 111.696Q337.066 111.65 333.754 111.65Q330.442 111.65 329.89 111.834Q327.452 119.838 327.13 123.38Q327.13 123.426 326.003 123.426Q324.876 123.426 323.68 123.288Q321.15 122.92 321.15 122.644Q321.15 120.804 324.416 111.926Q323.818 111.42 323.036 109.833Q322.254 108.246 322.254 107.188Q322.254 107.142 326.072 107.004Q329.844 96.056 330.35 95.458Q330.534 95.32 332.006 95.021Q333.478 94.72200000000001 333.892 94.72200000000001L333.8 94.124Q333.708 93.48 333.593 92.721Q333.478 91.962 333.478 91.732Q333.478 91.594 334.26 91.18Q336.514 90.076 338.906 90.076Q339.366 92.78999999999999 340.125 96.999Q340.884 101.208 343.092 109.856Q345.3 118.504 347.324 121.908L347.646 122.46Q347.646 122.69 346.77200000000005 123.24199999999999Q345.898 123.794 344.472 124.3Q343.046 124.806 341.85 124.806Q341.436 124.806 339.849 119.58500000000001Q338.262 114.364 337.71 111.696ZM336.606 106.958Q335.042 100.334 334.904 99.55199999999999Q334.766 98.77 334.674 98.77Q334.582 98.77 334.444 98.95400000000001Q334.03 99.736 332.903 102.726Q331.776 105.71600000000001 331.454 106.866Q336.56 106.866 336.606 106.958Z M350.728 115.79 350.636 105.348Q350.636 102.634 350.82 102.45Q351.326 101.944 352.568 101.553Q353.81 101.162 354.891 101.162Q355.97200000000004 101.162 355.97200000000004 101.392Q355.834 102.634 355.834 104.221Q355.834 105.80799999999999 355.92600000000004 105.80799999999999Q356.01800000000003 105.80799999999999 356.11 105.693Q356.202 105.578 356.409 105.325Q356.616 105.072 357.283 104.428Q357.95 103.78399999999999 358.732 103.324Q360.71000000000004 102.036 362.964 102.036Q363.332 102.634 363.332 103.876Q363.332 106.498 362.688 107.602L362.504 107.97L361.906 107.878Q358.594 107.878 356.708 110.592Q355.97200000000004 111.696 355.97200000000004 112.248V116.296Q355.97200000000004 121.816 355.834 121.954Q354.546 123.196 350.774 123.196Q350.406 123.196 350.406 123.058Q350.728 121.264 350.728 115.79Z M382.146 109.166 382.192 121.402Q382.192 124.99 381.249 127.79599999999999Q380.306 130.602 378.94899999999996 132.12Q377.592 133.638 375.844 134.60399999999998Q372.992 136.214 370.048 136.214Q369.90999999999997 136.214 369.496 135.524Q369.082 134.834 368.714 133.661Q368.346 132.488 368.346 131.476Q370.094 131.476 371.842 130.809Q373.59 130.142 374.28 129.38299999999998Q374.96999999999997 128.624 375.65999999999997 127.474Q377.086 125.22 377.086 120.16L377.04 118.826Q377.04 118.55 376.948 118.55Q376.856 118.55 376.764 118.68799999999999Q376.67199999999997 118.826 376.534 119.03299999999999Q376.396 119.24 375.86699999999996 119.769Q375.33799999999997 120.298 374.74 120.712Q373.13 121.816 371.49699999999996 121.816Q369.864 121.816 368.921 121.402Q367.978 120.988 367.35699999999997 120.344Q366.736 119.7 366.322 118.527Q365.908 117.354 365.678 116.342Q365.448 115.33 365.356 113.582Q365.17199999999997 111.144 365.17199999999997 108.522Q365.17199999999997 104.888 365.54 102.588L365.678 101.944Q365.678 101.622 367.081 101.30000000000001Q368.484 100.97800000000001 369.404 100.97800000000001L370.876 101.208Q370.37 105.762 370.37 108.89Q370.37 112.018 371.014 114.088Q371.658 116.158 373.17600000000004 116.158Q374.694 116.158 375.591 115.261Q376.488 114.364 376.718 113.49L376.948 112.616Q376.856 109.718 376.856 106.38300000000001Q376.856 103.048 377.086 102.818Q377.68399999999997 102.22 379.179 101.898Q380.674 101.576 381.594 101.576Q382.514 101.576 382.514 101.714Q382.146 103.876 382.146 109.166Z M403.07599999999996 111.742Q403.07599999999996 117.492 403.214 118.458Q403.582 120.988 404.77799999999996 122.092Q404.77799999999996 122.598 402.961 123.61Q401.144 124.622 399.67199999999997 124.622Q399.258 124.622 398.798 123.40299999999999Q398.33799999999997 122.184 398.269 121.586Q398.2 120.988 398.154 120.988L398.01599999999996 121.08Q395.578 123.012 392.312 123.012Q389.046 123.012 387.275 121.425Q385.50399999999996 119.838 385.50399999999996 117.262Q385.50399999999996 114.686 386.631 112.915Q387.758 111.144 389.27599999999995 110.224Q390.794 109.304 392.63399999999996 108.752Q395.44 107.832 397.05 107.832L397.142 107.786Q397.142 105.532 391.438 105.532Q389.18399999999997 105.532 388.08 105.71600000000001H388.034Q388.034 104.79599999999999 388.609 103.416Q389.18399999999997 102.036 389.575 101.622Q389.966 101.208 392.864 101.208Q398.108 101.208 400.592 103.209Q403.07599999999996 105.21000000000001 403.07599999999996 109.396ZM397.96999999999997 114.686V112.938Q397.96999999999997 111.926 397.924 111.926Q394.842 111.926 392.58799999999997 113.536Q391.162 114.548 391.162 116.066Q391.162 117.032 391.852 117.67599999999999Q392.542 118.32 393.94499999999994 118.32Q395.34799999999996 118.32 396.659 117.49199999999999Q397.96999999999997 116.664 397.96999999999997 114.686Z M425.47799999999995 124.208Q425.018 124.208 424.92599999999993 124.116Q423.40799999999996 122.736 419.2679999999999 110.27000000000001Q415.12799999999993 97.804 415.12799999999993 93.158Q415.12799999999993 93.066 415.77199999999993 92.78999999999999Q417.70399999999995 91.916 419.29099999999994 91.916Q420.87799999999993 91.916 420.87799999999993 92.054Q421.06199999999995 94.30799999999999 423.61499999999995 103.96799999999999Q426.16799999999995 113.628 428.0079999999999 117.354Q428.42199999999997 118.182 428.83599999999996 117.768Q428.97399999999993 117.63 429.0199999999999 117.446Q430.26199999999994 115.1 432.5849999999999 107.901Q434.90799999999996 100.702 434.90799999999996 96.056Q434.90799999999996 95.504 433.87299999999993 94.86000000000001Q432.83799999999997 94.21600000000001 432.00999999999993 94.124Q431.96399999999994 94.032 431.96399999999994 93.618Q431.96399999999994 93.20400000000001 432.19399999999996 92.307Q432.424 91.41 432.60799999999995 91.272Q436.84 90.122 441.07199999999995 90.122Q441.76199999999994 90.214 441.76199999999994 90.306Q441.76199999999994 94.262 439.62299999999993 102.15100000000001Q437.4839999999999 110.04 435.2299999999999 116.227Q432.97599999999994 122.414 432.28599999999994 123.104Q430.26199999999994 124.208 425.47799999999995 124.208Z M447.8109999999999 94.538Q449.0759999999999 94.538 449.85799999999995 95.366Q450.63999999999993 96.194 450.63999999999993 97.52799999999999Q450.63999999999993 98.862 449.6049999999999 99.805Q448.56999999999994 100.748 447.30499999999995 100.748Q446.0399999999999 100.748 445.28099999999995 99.94300000000001Q444.52199999999993 99.138 444.52199999999993 97.804Q444.52199999999993 96.47 445.53399999999993 95.50399999999999Q446.54599999999994 94.538 447.8109999999999 94.538ZM450.1339999999999 105.992 450.0419999999999 113.444Q450.0419999999999 117.032 450.2489999999999 118.711Q450.4559999999999 120.39 451.4219999999999 121.862Q451.4219999999999 122.322 449.53599999999994 123.334Q447.6499999999999 124.346 446.3159999999999 124.346Q445.90199999999993 124.346 445.48799999999994 122.96600000000001Q445.0739999999999 121.586 444.95899999999995 120.344Q444.84399999999994 119.102 444.84399999999994 111.97200000000001Q444.84399999999994 104.842 445.16599999999994 104.19800000000001Q446.22399999999993 103.37 448.89199999999994 103.37Q449.94999999999993 103.37 450.17999999999995 103.646Z M466.14199999999994 102.266 466.04999999999995 95.458Q466.04999999999995 92.606 466.18799999999993 92.468Q466.73999999999995 91.916 468.00499999999994 91.387Q469.2699999999999 90.858 470.41999999999996 90.858Q471.56999999999994 90.858 471.56999999999994 91.042Q471.20199999999994 98.678 471.20199999999994 107.28Q471.20199999999994 115.882 471.47799999999995 117.538Q471.79999999999995 120.022 472.9959999999999 121.218Q472.9959999999999 121.678 471.08699999999993 122.667Q469.17799999999994 123.656 467.84399999999994 123.656Q467.7059999999999 123.656 467.42999999999995 123.288Q466.5559999999999 122.138 466.3719999999999 120.16Q466.3719999999999 120.022 466.2799999999999 120.022L466.14199999999994 120.114Q464.2099999999999 122.874 460.39199999999994 122.874Q457.30999999999995 122.874 455.51599999999996 120.436Q453.7219999999999 117.998 453.7219999999999 114.962Q453.7219999999999 109.764 456.9419999999999 106.107Q460.1619999999999 102.45 466.14199999999994 102.266ZM466.2339999999999 107.096Q466.2339999999999 107.004 465.72799999999995 107.004H465.5439999999999Q462.5999999999999 107.004 460.92099999999994 108.89Q459.2419999999999 110.776 459.2419999999999 113.674Q459.2419999999999 115.376 460.0469999999999 116.457Q460.8519999999999 117.538 462.4849999999999 117.538Q464.11799999999994 117.538 465.10699999999997 116.112Q466.09599999999995 114.686 466.09599999999995 113.858Q466.09599999999995 108.752 466.2339999999999 107.096Z M493.41999999999996 109.166 493.46599999999995 121.402Q493.46599999999995 124.99 492.5229999999999 127.79599999999999Q491.5799999999999 130.602 490.22299999999996 132.12Q488.86599999999993 133.638 487.11799999999994 134.60399999999998Q484.26599999999996 136.214 481.32199999999995 136.214Q481.1839999999999 136.214 480.7699999999999 135.524Q480.35599999999994 134.834 479.98799999999994 133.661Q479.61999999999995 132.488 479.61999999999995 131.476Q481.36799999999994 131.476 483.11599999999993 130.809Q484.8639999999999 130.142 485.5539999999999 129.38299999999998Q486.2439999999999 128.624 486.9339999999999 127.474Q488.35999999999996 125.22 488.35999999999996 120.16L488.31399999999996 118.826Q488.31399999999996 118.55 488.222 118.55Q488.12999999999994 118.55 488.0379999999999 118.68799999999999Q487.9459999999999 118.826 487.80799999999994 119.03299999999999Q487.66999999999996 119.24 487.14099999999996 119.769Q486.61199999999997 120.298 486.01399999999995 120.712Q484.40399999999994 121.816 482.77099999999996 121.816Q481.1379999999999 121.816 480.19499999999994 121.402Q479.25199999999995 120.988 478.631 120.344Q478.00999999999993 119.7 477.59599999999995 118.527Q477.18199999999996 117.354 476.95199999999994 116.342Q476.7219999999999 115.33 476.62999999999994 113.582Q476.4459999999999 111.144 476.4459999999999 108.522Q476.4459999999999 104.888 476.81399999999996 102.588L476.95199999999994 101.944Q476.95199999999994 101.622 478.3549999999999 101.30000000000001Q479.7579999999999 100.97800000000001 480.67799999999994 100.97800000000001L482.1499999999999 101.208Q481.64399999999995 105.762 481.64399999999995 108.89Q481.64399999999995 112.018 482.28799999999995 114.088Q482.93199999999996 116.158 484.44999999999993 116.158Q485.96799999999996 116.158 486.86499999999995 115.261Q487.76199999999994 114.364 487.99199999999996 113.49L488.2219999999999 112.616Q488.12999999999994 109.718 488.12999999999994 106.38300000000001Q488.12999999999994 103.048 488.35999999999996 102.818Q488.9579999999999 102.22 490.4529999999999 101.898Q491.9479999999999 101.576 492.86799999999994 101.576Q493.78799999999995 101.576 493.78799999999995 101.714Q493.41999999999996 103.876 493.41999999999996 109.166Z M514.3499999999999 111.742Q514.3499999999999 117.492 514.4879999999999 118.458Q514.8559999999999 120.988 516.0519999999999 122.092Q516.0519999999999 122.598 514.2349999999999 123.61Q512.4179999999999 124.622 510.9459999999999 124.622Q510.5319999999999 124.622 510.0719999999999 123.40299999999999Q509.6119999999999 122.184 509.5429999999999 121.586Q509.47399999999993 120.988 509.42799999999994 120.988L509.2899999999999 121.08Q506.8519999999999 123.012 503.5859999999999 123.012Q500.31999999999994 123.012 498.5489999999999 121.425Q496.7779999999999 119.838 496.7779999999999 117.262Q496.7779999999999 114.686 497.9049999999999 112.915Q499.0319999999999 111.144 500.54999999999995 110.224Q502.0679999999999 109.304 503.9079999999999 108.752Q506.71399999999994 107.832 508.32399999999996 107.832L508.41599999999994 107.786Q508.41599999999994 105.532 502.71199999999993 105.532Q500.4579999999999 105.532 499.3539999999999 105.71600000000001H499.30799999999994Q499.30799999999994 104.79599999999999 499.8829999999999 103.416Q500.4579999999999 102.036 500.84899999999993 101.622Q501.23999999999995 101.208 504.1379999999999 101.208Q509.38199999999995 101.208 511.86599999999993 103.209Q514.3499999999999 105.21000000000001 514.3499999999999 109.396ZM509.2439999999999 114.686V112.938Q509.2439999999999 111.926 509.1979999999999 111.926Q506.11599999999993 111.926 503.8619999999999 113.536Q502.4359999999999 114.548 502.4359999999999 116.066Q502.4359999999999 117.032 503.1259999999999 117.67599999999999Q503.8159999999999 118.32 505.21899999999994 118.32Q506.62199999999996 118.32 507.93299999999994 117.49199999999999Q509.2439999999999 116.664 509.2439999999999 114.686Z" fill="#4DAA57"/>
  <path d="M329.738 146.471H327.192V152.0H325.463V138.757H329.738Q331.98 138.757 333.1485 139.84Q334.317 140.923 334.317 142.633Q334.317 144.286 333.1865 145.3785Q332.056 146.471 329.738 146.471ZM332.55 142.633Q332.55 140.182 329.738 140.182H327.192V145.046H329.738Q331.182 145.046 331.866 144.41899999999998Q332.55 143.792 332.55 142.633Z M341.193 150.594H345.82899999999995V152.0H339.464V138.757H341.193Z M358.5 149.055H352.724L351.66 152.0H349.836L354.624 138.833H356.619L361.388 152.0H359.564ZM358.00600000000003 147.649 355.612 140.961 353.218 147.649Z M375.75 138.757 371.437 147.003V152.0H369.70799999999997V147.003L365.376 138.757H367.29499999999996L370.563 145.464L373.83099999999996 138.757Z M388.267 148.466H390.10999999999996Q390.205 149.397 390.8795 150.0335Q391.554 150.67 392.84599999999995 150.67Q394.08099999999996 150.67 394.7935 150.0525Q395.506 149.435 395.506 148.466Q395.506 147.706 395.08799999999997 147.231Q394.66999999999996 146.756 394.043 146.50900000000001Q393.416 146.262 392.352 145.977Q391.041 145.635 390.25249999999994 145.293Q389.46399999999994 144.951 388.90349999999995 144.21949999999998Q388.34299999999996 143.488 388.34299999999996 142.253Q388.34299999999996 141.17 388.894 140.334Q389.445 139.498 390.4425 139.042Q391.43999999999994 138.586 392.73199999999997 138.586Q394.594 138.586 395.7815 139.517Q396.969 140.448 397.121 141.987H395.22099999999995Q395.126 141.227 394.423 140.6475Q393.71999999999997 140.068 392.561 140.068Q391.47799999999995 140.068 390.794 140.6285Q390.10999999999996 141.189 390.10999999999996 142.196Q390.10999999999996 142.918 390.51849999999996 143.37400000000002Q390.92699999999996 143.83 391.52549999999997 144.0675Q392.12399999999997 144.305 393.207 144.609Q394.518 144.97 395.316 145.32150000000001Q396.114 145.673 396.68399999999997 146.40449999999998Q397.25399999999996 147.136 397.25399999999996 148.39Q397.25399999999996 149.359 396.741 150.214Q396.22799999999995 151.069 395.22099999999995 151.601Q394.21399999999994 152.133 392.84599999999995 152.133Q391.53499999999997 152.133 390.49949999999995 151.66750000000002Q389.46399999999994 151.202 388.87499999999994 150.3755Q388.28599999999994 149.549 388.267 148.466Z M408.76599999999996 138.586Q410.932 138.586 412.547 139.631Q414.162 140.676 414.90299999999996 142.595H412.832Q412.281 141.398 411.2455 140.752Q410.21 140.106 408.76599999999996 140.106Q407.37899999999996 140.106 406.277 140.752Q405.175 141.398 404.548 142.5855Q403.921 143.773 403.921 145.369Q403.921 146.946 404.548 148.1335Q405.175 149.321 406.277 149.96699999999998Q407.37899999999996 150.613 408.76599999999996 150.613Q410.21 150.613 411.2455 149.9765Q412.281 149.34 412.832 148.143H414.90299999999996Q414.162 150.043 412.547 151.07850000000002Q410.932 152.114 408.76599999999996 152.114Q406.923 152.114 405.4125 151.2495Q403.902 150.385 403.028 148.846Q402.154 147.307 402.154 145.369Q402.154 143.431 403.028 141.8825Q403.902 140.334 405.4125 139.46Q406.923 138.586 408.76599999999996 138.586Z M430.671 138.757V152.0H428.942V145.996H422.197V152.0H420.468V138.757H422.197V144.571H428.942V138.757Z M435.97 145.369Q435.97 143.431 436.85350000000005 141.8825Q437.737 140.334 439.25700000000006 139.46949999999998Q440.77700000000004 138.605 442.62 138.605Q444.482 138.605 446.00200000000007 139.46949999999998Q447.52200000000005 140.334 448.3960000000001 141.873Q449.27000000000004 143.412 449.27000000000004 145.369Q449.27000000000004 147.326 448.3960000000001 148.865Q447.52200000000005 150.404 446.00200000000007 151.26850000000002Q444.482 152.133 442.62 152.133Q440.77700000000004 152.133 439.25700000000006 151.26850000000002Q437.737 150.404 436.85350000000005 148.8555Q435.97 147.307 435.97 145.369ZM447.50300000000004 145.369Q447.50300000000004 143.773 446.86650000000003 142.5855Q446.23 141.398 445.12800000000004 140.752Q444.026 140.106 442.62 140.106Q441.214 140.106 440.112 140.752Q439.01000000000005 141.398 438.37350000000004 142.5855Q437.737 143.773 437.737 145.369Q437.737 146.946 438.37350000000004 148.143Q439.01000000000005 149.34 440.1215 149.986Q441.233 150.632 442.62 150.632Q444.007 150.632 445.11850000000004 149.986Q446.23 149.34 446.86650000000003 148.143Q447.50300000000004 146.946 447.50300000000004 145.369Z M453.904 145.369Q453.904 143.431 454.7875 141.8825Q455.671 140.334 457.19100000000003 139.46949999999998Q458.711 138.605 460.554 138.605Q462.416 138.605 463.93600000000004 139.46949999999998Q465.456 140.334 466.33000000000004 141.873Q467.204 143.412 467.204 145.369Q467.204 147.326 466.33000000000004 148.865Q465.456 150.404 463.93600000000004 151.26850000000002Q462.416 152.133 460.554 152.133Q458.711 152.133 457.19100000000003 151.26850000000002Q455.671 150.404 454.7875 148.8555Q453.904 147.307 453.904 145.369ZM465.437 145.369Q465.437 143.773 464.8005 142.5855Q464.164 141.398 463.062 140.752Q461.96 140.106 460.554 140.106Q459.14799999999997 140.106 458.046 140.752Q456.944 141.398 456.3075 142.5855Q455.671 143.773 455.671 145.369Q455.671 146.946 456.3075 148.143Q456.944 149.34 458.0555 149.986Q459.167 150.632 460.554 150.632Q461.941 150.632 463.0525 149.986Q464.164 149.34 464.8005 148.143Q465.437 146.946 465.437 145.369Z M474.21299999999997 150.594H478.84899999999993V152.0H472.484V138.757H474.21299999999997Z" fill="#6B7280"/>
</svg>
